<svg width="933" height="566" viewBox="0 0 933 566" fill="none" xmlns="http://www.w3.org/2000/svg">
<path d="M87.2012 511.425H149.569" stroke="#424D76" stroke-width="5" stroke-miterlimit="10" stroke-linecap="round"/>
<path d="M65.5754 378.395L175.184 551.855" stroke="#424D76" stroke-width="5" stroke-miterlimit="10" stroke-linecap="round"/>
<path d="M171.195 378.395L61.5862 551.855" stroke="#424D76" stroke-width="5" stroke-miterlimit="10" stroke-linecap="round"/>
<path d="M193.903 363.967C193.903 365.445 190.501 366.834 184.521 368.041C171.655 370.64 146.858 372.401 118.387 372.401C89.9155 372.401 65.1182 370.64 52.2609 368.037C46.277 366.83 42.8781 365.441 42.8781 363.963C42.8781 359.308 76.6871 355.529 118.395 355.529C160.102 355.529 193.903 359.308 193.903 363.967Z" fill="white" stroke="#FFB000" stroke-width="5" stroke-miterlimit="10"/>
<path d="M193.902 363.967V372.114C193.902 376.77 160.089 380.549 118.385 380.549C76.6815 380.549 42.8686 376.774 42.8686 372.114V363.967C42.8686 365.445 46.2714 366.834 52.2513 368.041C65.1166 370.64 89.9099 372.401 118.385 372.401C146.861 372.401 171.654 370.64 184.519 368.037C190.499 366.834 193.902 365.445 193.902 363.967Z" fill="#FFD880" stroke="#FFB000" stroke-width="5" stroke-miterlimit="10"/>
<path d="M106.206 491.999C109.545 493.854 116.69 494.059 117.962 498.82C119.235 503.58 112.242 522.427 113.355 529.081C114.468 535.735 114.368 549.942 103.031 551.478C90.4843 553.178 80.954 549.007 80.954 544.371C80.954 539.735 88.2623 534.474 89.3593 526.598C90.4564 518.722 93.3486 501.729 93.3486 501.729L106.206 491.999Z" fill="#FFB000"/>
<path d="M90.205 512.748C90.205 512.748 95.4988 508.286 103.617 512.748" stroke="white" stroke-width="4" stroke-linecap="round" stroke-linejoin="round"/>
<path d="M89.0083 518.179C89.0083 518.179 94.3021 513.717 102.42 518.179" stroke="white" stroke-width="4" stroke-linecap="round" stroke-linejoin="round"/>
<path d="M87.8115 523.611C87.8115 523.611 93.1053 519.149 101.223 523.611" stroke="white" stroke-width="4" stroke-linecap="round" stroke-linejoin="round"/>
<path d="M148.991 515.394C146.868 518.412 134.629 525.826 135.272 529.225C135.914 532.623 147.184 542.509 147.977 547.758C148.771 553.007 147.662 560.886 152.425 563.206C157.189 565.527 182.445 565.678 186.574 563.206C190.702 560.735 186.254 552.856 181.806 551.156C177.358 549.457 165.45 530.152 166.137 518.257L148.991 515.394Z" fill="#FFB000"/>
<path d="M171.366 529.333C171.366 529.333 166.073 524.872 157.955 529.333" stroke="white" stroke-width="4" stroke-linecap="round" stroke-linejoin="round"/>
<path d="M173.361 534.765C173.361 534.765 168.067 530.303 159.949 534.765" stroke="white" stroke-width="4" stroke-linecap="round" stroke-linejoin="round"/>
<path d="M175.755 540.196C175.755 540.196 170.461 535.735 162.343 540.196" stroke="white" stroke-width="4" stroke-linecap="round" stroke-linejoin="round"/>
<path d="M73.1031 306.672C73.1031 306.672 0 334.978 0 359.331C0 402.756 62.3401 482.704 75.0978 481.505C87.8554 480.306 96.4443 470.3 95.9536 465.051C95.4629 459.802 72.417 392.254 55.9493 369.344C55.9493 369.344 106.262 356.929 112.888 356.697C119.514 356.464 153.622 374.357 154.113 375.071C154.604 375.784 136.48 424.171 146.996 487.231C148.468 496.061 175.95 497.97 178.651 494.393C181.352 490.816 211.762 366.241 207.605 356.219C203.448 346.198 168.51 318.769 147.395 307.836C132.18 299.961 73.1031 306.672 73.1031 306.672Z" fill="#424D76"/>
<path d="M170.218 507.06C169.763 508.426 167.605 514.854 166.137 518.257C164.732 521.504 147.239 520.402 148.983 515.39C150.471 511.122 150.495 505.303 150.467 503.666C153.331 504.771 161.453 507.545 170.218 507.06Z" fill="#C36F0B"/>
<path d="M170.553 507.041L175.44 495.72C175.44 495.72 159.574 497.636 148.991 490.525L149.39 503.219C149.39 503.219 160.392 508.092 170.553 507.041Z" fill="#6562CF"/>
<path d="M98.9934 478.642C98.9934 478.642 104.778 490.3 106.206 491.999C107.634 493.699 99.6955 502.346 93.3446 501.73L83.1959 488.426C83.1959 488.426 94.0826 486.448 98.9934 478.642Z" fill="#C36F0B"/>
<path d="M95.3074 468.415L99.3924 478.642C99.3924 478.642 93.0534 487.196 82.3981 488.814L75.0978 481.505C75.0978 481.505 88.769 479.903 95.3074 468.415Z" fill="#6562CF"/>
<path d="M142.149 160.863C148.604 165.476 166.141 173.542 177.055 180.972C185.859 186.966 193.714 213.173 193.714 213.173C193.714 213.173 181.455 225.332 160.863 230.1C160.863 230.1 149.094 265.404 144.682 306.637C144.682 306.637 106.924 320.216 72.8478 306.637C72.8478 306.637 59.1168 231.054 57.4014 230.596C55.686 230.138 30.2426 222.546 21.897 210.383C21.897 210.383 31.7385 182.811 45.1544 177.406C59.7311 171.532 79.1548 163.482 85.9126 159.948C89.3594 158.117 142.149 160.863 142.149 160.863Z" fill="#EAEAFF"/>
<path d="M51.9321 174.632L23.3132 212.18C23.002 211.819 22.7028 211.454 22.4276 211.082L49.4388 175.653L51.9321 174.632Z" fill="white"/>
<path d="M65.9264 168.844L28.966 217.34C28.595 217.064 28.232 216.789 27.8769 216.509L63.3813 169.922L65.9264 168.844Z" fill="white"/>
<path d="M80.2279 162.644L35.4007 221.448C35.0017 221.223 34.6028 220.998 34.2039 220.761L77.603 163.824C78.5245 163.412 79.3862 163.021 80.2279 162.644Z" fill="white"/>
<path d="M92.3234 159.338L42.322 224.927C41.8992 224.737 41.4763 224.539 41.0495 224.342L90.5561 159.385C91.1146 159.365 91.701 159.346 92.3234 159.338Z" fill="white"/>
<path d="M101.882 159.358L49.6224 227.938L48.27 227.43L100.182 159.334L101.882 159.358Z" fill="white"/>
<path d="M111.3 159.586L57.2139 230.517C56.9386 230.436 56.4599 230.292 55.8177 230.091L109.601 159.539C110.163 159.551 110.722 159.566 111.3 159.586Z" fill="white"/>
<path d="M120.615 159.909L59.8708 239.585C59.7391 238.98 59.6115 238.398 59.4718 237.84L118.932 159.859L120.615 159.909Z" fill="white"/>
<path d="M129.898 160.289L61.9491 249.424C61.8255 248.823 61.7058 248.229 61.5861 247.647L128.235 160.216L129.898 160.289Z" fill="white"/>
<path d="M139.149 160.716L63.9438 259.372C63.8241 258.774 63.7044 258.173 63.5887 257.579L137.49 160.638L139.149 160.716Z" fill="white"/>
<path d="M146.517 163.618L65.8826 269.389C65.7709 268.788 65.6552 268.186 65.5395 267.585L145.325 162.916C145.708 163.145 146.107 163.377 146.517 163.618Z" fill="white"/>
<path d="M153.247 167.346L67.8174 279.433C67.7017 278.836 67.59 278.234 67.4743 277.625L152.027 166.683C152.43 166.908 152.836 167.129 153.247 167.346Z" fill="white"/>
<path d="M160.037 171.001L69.6883 289.517C69.5806 288.923 69.4689 288.318 69.3532 287.705L158.82 170.345L160.037 171.001Z" fill="white"/>
<path d="M166.783 174.714L71.5633 299.639C71.4556 299.06 71.3479 298.475 71.2282 297.819L165.578 174.054L166.783 174.714Z" fill="white"/>
<path d="M173.389 178.605L75.1297 307.514L73.8012 306.998L172.228 177.883L173.389 178.605Z" fill="white"/>
<path d="M179.517 183.156L82.9007 309.869C82.422 309.753 81.9473 309.625 81.4686 309.481L178.527 182.159C178.854 182.477 179.177 182.803 179.517 183.156Z" fill="white"/>
<path d="M184.064 189.724L91.2063 311.545C90.6957 311.471 90.1811 311.39 89.6705 311.297L183.318 188.448C183.57 188.863 183.817 189.294 184.064 189.724Z" fill="white"/>
<path d="M160.647 230.744C160.416 231.465 160.005 232.761 159.451 234.565L100.071 312.476C99.524 312.441 98.9815 312.406 98.4309 312.36L160.647 230.744Z" fill="white"/>
<path d="M187.838 197.332L163.344 229.463C162.642 229.653 161.928 229.851 161.21 230.007L187.196 195.912C187.411 196.393 187.627 196.867 187.838 197.332Z" fill="white"/>
<path d="M154.967 250.767C154.683 251.853 154.404 252.978 154.121 254.13L109.525 312.635C108.947 312.635 108.368 312.659 107.782 312.663L154.967 250.767Z" fill="white"/>
<path d="M191.137 205.569L176.724 224.49C175.87 224.901 174.989 225.308 174.071 225.708L190.579 204.052C190.77 204.572 190.958 205.091 191.137 205.569Z" fill="white"/>
<path d="M150.754 268.854C150.539 269.87 150.324 270.905 150.112 271.957L119.622 311.956C119.004 312.022 118.385 312.088 117.755 312.147L150.754 268.854Z" fill="white"/>
<path d="M147.602 285.563C147.447 286.514 147.287 287.468 147.136 288.43L130.449 310.311C129.798 310.436 129.128 310.564 128.454 310.699L147.602 285.563Z" fill="white"/>
<path d="M205.447 275.818C204.545 292.112 172.767 307.243 156.008 314.11C155.453 317.485 153.176 318.963 148.795 320.061C139.664 322.35 140.522 328.208 140.051 329.326C139.313 331.107 130.305 333.136 128.139 331.654C126.85 330.765 130.489 319.607 132.559 315.685C133.848 313.245 142.48 308.624 148.141 306.634C148.141 306.634 176.864 272.776 180.797 270.867C180.797 270.867 170.174 242.546 165.73 232.354C165.095 230.891 164.585 229.805 164.254 229.227C164.254 229.227 180.211 224.571 191.006 215.532C191.006 215.532 191.983 217.902 193.423 221.801C197.759 233.541 206.36 259.17 205.447 275.818Z" fill="#C36F0B"/>
<path d="M193.419 221.797C191.185 224.106 184.395 229.106 165.726 232.35C165.087 230.891 164.577 229.801 164.246 229.223C164.246 229.223 180.203 224.567 191.002 215.528C191.002 215.528 191.975 217.894 193.419 221.797Z" fill="#B65A18"/>
<path d="M90.4963 331.261C88.0749 332.301 80.8423 330.353 80.1801 329.321C79.5179 328.289 78.5844 321.872 71.4396 319.669C66.3254 318.09 64.0037 316.518 64.0914 311.611C49.2235 306.672 9.68595 292.022 7.89477 275.39C6.698 264.294 18.6299 232.555 23.6124 219.911C24.9169 216.61 25.7427 214.608 25.7427 214.608C37.2358 223.919 52.1516 228.776 52.1516 228.776L50.9189 232.062L36.5297 270.385C43.08 272.803 66.9358 301.295 70.6538 305.768C78.4049 307.227 86.7065 312.468 87.6759 315.292C88.6932 318.253 92.9896 330.186 90.4963 331.261Z" fill="#C36F0B"/>
<path d="M25.7467 214.6C37.2357 223.912 52.1555 228.769 52.1555 228.769L50.9229 232.051C43.0441 230.841 30.1029 227.881 23.6164 219.9C24.9169 216.602 25.7467 214.6 25.7467 214.6Z" fill="#B65A18"/>
<path d="M167.309 341.9H51.8005L32.3568 267.573C32.0566 266.559 32.0032 265.491 32.2007 264.453C32.3983 263.416 32.8414 262.437 33.4951 261.595C34.1487 260.752 34.995 260.07 35.9669 259.6C36.9388 259.131 38.0096 258.888 39.0947 258.891H180.031C181.115 258.89 182.184 259.135 183.154 259.605C184.124 260.076 184.968 260.759 185.62 261.601C186.271 262.443 186.713 263.421 186.91 264.457C187.107 265.494 187.053 266.56 186.753 267.573L167.309 341.9Z" fill="white" stroke="#6562CF" stroke-width="7" stroke-miterlimit="10"/>
<path d="M163.807 341.201H55.2991L37.0323 271.368C35.8355 267.282 34.9898 262.444 39.358 262.444H179.748C184.116 262.444 183.282 267.29 182.074 271.368L163.807 341.201Z" fill="#6562CF"/>
<path d="M116.159 307.801H102.951C102.508 307.801 102.077 307.657 101.728 307.392C101.378 307.127 101.129 306.756 101.02 306.339L99.4442 298.063C99.4053 297.931 99.3986 297.791 99.4246 297.655C99.4507 297.52 99.5087 297.392 99.5941 297.282C99.6795 297.171 99.7901 297.082 99.917 297.02C100.044 296.959 100.184 296.927 100.326 296.927H118.784C118.926 296.927 119.066 296.959 119.193 297.02C119.32 297.082 119.43 297.171 119.516 297.282C119.601 297.392 119.659 297.52 119.685 297.655C119.711 297.791 119.705 297.931 119.666 298.063L118.082 306.35C117.971 306.765 117.722 307.132 117.374 307.394C117.027 307.657 116.599 307.8 116.159 307.801Z" stroke="white" stroke-width="6" stroke-linejoin="round"/>
<path d="M127.11 137.974C127.11 137.974 126.455 151.94 142.149 160.863C142.149 160.863 126.591 171.882 113.71 186.035C113.71 186.035 99.9069 169.62 85.9246 159.913C85.9246 159.913 99.6516 149.418 99.6516 137.977L127.11 137.974Z" fill="#B65A18"/>
<path d="M140.466 130.284C138.89 132.294 136.046 136.061 134.673 138.765C132.232 151.642 123.902 160.161 113.343 160.161C104.191 160.161 98.0081 150.183 95.1597 140.907C95.0926 140.738 95.0366 140.566 94.9922 140.391C94.2861 137.834 90.4604 132.748 88.5376 130.303C88.3852 130.109 88.2774 129.885 88.2213 129.647C88.1653 129.408 88.1623 129.161 88.2125 128.922C88.2628 128.682 88.3651 128.456 88.5127 128.258C88.6602 128.06 88.8496 127.895 89.0681 127.774C91.4138 126.466 92.6305 127.417 93.2688 128.658C92.9297 119.382 93.3247 109.648 98.8777 109.594C105.261 109.536 126.487 109.128 130.165 110.323C133.329 111.347 135.415 115.658 135.423 129.434C135.922 127.883 137.119 126.203 139.935 127.774C140.151 127.895 140.337 128.059 140.483 128.256C140.628 128.452 140.73 128.676 140.78 128.913C140.83 129.15 140.828 129.395 140.774 129.631C140.72 129.868 140.615 130.09 140.466 130.284Z" fill="#C36F0B"/>
<path d="M144.279 113.404C140.059 118.564 135.06 130.509 135.06 130.509C135.06 130.509 136.875 112.019 129.519 112.22C126.021 112.314 118.984 117.082 111.615 116.306C105.496 115.662 97.8525 107.584 94.7049 112.864C92.9616 116.911 93.0853 123.262 93.3486 129.795C91.4697 121.435 87.5841 115.871 85.4499 112.55C80.9659 110.288 77.4474 105.447 78.4607 100.523C80.1841 92.1936 86.7863 92.6592 86.7863 92.6592C97.9203 93.7804 91.4218 87.4682 104.917 81.5052C118.413 75.5422 133.764 81.1871 135.084 88.3722C135.994 93.2993 139.109 90.8319 143.988 93.0278C150.842 96.1393 149.238 107.324 144.279 113.404Z" fill="#FFB000"/>
<path d="M104.072 118.994C122.965 121.322 124.84 111.347 132.974 112.554" stroke="#FFB000" stroke-width="3" stroke-miterlimit="10"/>
<path d="M293.891 396.929V479.46L253.188 526.945" stroke="#6562CF" stroke-width="6" stroke-miterlimit="10" stroke-linecap="round"/>
<path d="M304.176 396.929V479.46L344.881 526.945" stroke="#6562CF" stroke-width="6" stroke-miterlimit="10" stroke-linecap="round"/>
<path d="M298.835 480.423V526.949" stroke="#6562CF" stroke-width="6" stroke-miterlimit="10" stroke-linecap="round"/>
<path d="M284.233 385.594H314.8C314.8 388.598 313.795 391.478 312.005 393.601C310.216 395.725 307.789 396.918 305.258 396.918H293.784C291.253 396.918 288.826 395.725 287.036 393.601C285.247 391.478 284.241 388.598 284.241 385.594H284.233Z" fill="white" stroke="#6562CF" stroke-width="5" stroke-miterlimit="10"/>
<path d="M281.027 365.325H271.783L268.181 341.503H277.425L281.027 365.325Z" fill="white" stroke="#6562CF" stroke-width="5" stroke-miterlimit="10"/>
<path d="M352.566 370.399V379.632C352.566 380.853 349.748 381.999 344.849 382.972C335.438 384.844 318.351 386.097 298.832 386.097C269.159 386.097 245.101 383.202 245.101 379.632V370.399C245.101 372.208 251.28 373.843 261.236 375.017C270.927 376.16 284.197 376.865 298.832 376.865C313.467 376.865 326.74 376.157 336.431 375.017C339.663 374.635 342.496 374.207 344.849 373.74C349.748 372.767 352.566 371.62 352.566 370.399Z" fill="white" stroke="#6562CF" stroke-width="5" stroke-miterlimit="10"/>
<path d="M352.566 370.399C352.566 371.62 349.748 372.767 344.849 373.74C342.496 374.207 339.663 374.635 336.431 375.017C326.74 376.16 313.47 376.865 298.832 376.865C284.194 376.865 270.927 376.157 261.236 375.017C251.28 373.843 245.101 372.208 245.101 370.399C245.101 366.829 269.159 363.934 298.832 363.934C322.425 363.934 342.466 365.764 349.691 368.308C351.555 368.966 352.566 369.667 352.566 370.399Z" fill="white" stroke="#6562CF" stroke-width="5" stroke-miterlimit="10"/>
<path d="M282.569 344.762H265.548C250.492 344.762 236.137 330.523 233.481 312.96L227.424 272.878C224.77 255.316 234.822 241.076 249.878 241.076H266.908C281.963 241.076 296.318 255.316 298.972 272.878L305.031 312.96C307.685 330.523 297.633 344.762 282.569 344.762Z" fill="white" stroke="#6562CF" stroke-width="5" stroke-miterlimit="10"/>
<path d="M293.891 479.46H304.178" stroke="#6562CF" stroke-width="6" stroke-miterlimit="10" stroke-linecap="round"/>
<path d="M265.45 204.862C275.481 189.663 267.069 172.809 269.347 163.7C273.799 145.88 293.145 167.448 300.821 145.388C300.821 145.388 312.173 154.825 313.345 152.971L342.708 149.723C353.371 136.223 349.566 121.442 345.221 115.752C345.221 115.752 331.803 97.6126 316.524 106.406C308.332 111.123 301.662 125.918 300.019 137.546C298.244 150.119 282.399 112.776 259.343 125.423C244.248 133.735 255.699 159.613 238.055 160.232C214.879 161.05 203.873 188.35 231.041 211.939C244.102 223.294 258.794 214.95 265.45 204.862Z" fill="#6562CF"/>
<path d="M298.322 139.662L301.107 146.071" stroke="#FFB000" stroke-width="10" stroke-linecap="round" stroke-linejoin="round"/>
<path d="M226.671 227.766C229.952 221.023 229.761 213.605 226.246 211.196C222.73 208.787 217.22 212.301 213.94 219.044C210.659 225.787 210.85 233.205 214.366 235.614C217.881 238.023 223.391 234.509 226.671 227.766Z" fill="#6562CF"/>
<path d="M224.991 208.301L229.559 212.611" stroke="#FFB000" stroke-width="10" stroke-linecap="round" stroke-linejoin="round"/>
<path d="M275.71 287.312C275.71 287.312 237.566 352.161 276.984 368.878C303.2 379.996 355.852 378.942 388.182 376.985C395.941 376.515 403.336 372.93 409.153 366.817C414.97 360.705 418.864 352.427 420.195 343.343C421.106 337.152 420.148 330.779 417.491 325.342C414.834 319.906 410.648 315.755 405.668 313.618C383.235 304 345.388 287.291 322.547 282.712C322.547 282.712 303.74 294.407 275.71 287.312Z" fill="#FFBE00"/>
<path d="M451.398 494.655C451.398 494.655 441.033 499.319 448.634 525.756H450.33C450.33 525.756 452.039 512.451 453.936 512.338C455.832 512.225 461.146 525.756 463.898 525.756H486C486 525.756 485.526 520.402 482.124 519.826C478.721 519.249 471.687 510.724 471.687 510.724L451.398 494.655Z" fill="#6562CF"/>
<path d="M412.681 317.189C426.425 322.299 438.087 433.713 471.675 510.724C471.675 510.724 453.318 509.171 451.398 494.655C451.398 494.655 395.675 426.49 394.187 385.8C392.699 345.109 404.23 314.05 412.681 317.189Z" fill="#A85F2B"/>
<path d="M391.784 494.655C391.784 494.655 381.419 499.319 389.02 525.756H390.716C390.716 525.756 392.425 512.451 394.321 512.338C396.218 512.225 401.532 525.756 404.284 525.756H426.386C426.386 525.756 425.912 520.402 422.509 519.826C419.107 519.249 412.073 510.724 412.073 510.724L391.784 494.655Z" fill="#6562CF"/>
<path d="M391.846 494.761C391.846 494.761 369.124 407.711 375.198 373.598C382.597 332.062 402.504 309.606 412.037 317.189C421.57 324.772 395.687 441.802 405.149 494.761C406.318 501.297 412.764 511.436 412.764 511.436C412.764 511.436 388.289 508.414 391.846 494.761Z" fill="#B6732B"/>
<path d="M263.273 180.53C267.447 176.517 284.069 166.588 303.129 162.221C322.189 157.855 331.567 165.555 334.475 170.714C338.393 177.653 332.337 185.895 335.181 206.373C337.316 221.752 342.356 232.693 339.729 240.606C335.721 252.669 324.849 252.878 324.503 281.194C324.372 291.767 280.878 292.379 275.898 287.309C270.918 282.238 252.18 191.189 263.273 180.53Z" fill="#FFBE00"/>
<path d="M259.7 188.23C253.647 218.977 270.37 266.947 280.341 266.947C301.59 266.958 338.232 220.078 338.232 220.078L336.204 211.338L285.676 241.144C285.676 241.144 282.667 204.023 279.804 191.107C276.879 177.901 262.787 172.572 259.7 188.23Z" fill="#B6732B"/>
<path d="M380.027 200.742C386.883 194.691 388.963 184.237 384.673 177.392C380.383 170.547 371.347 169.903 364.492 175.954C357.636 182.005 355.556 192.459 359.846 199.304C364.136 206.149 373.171 206.793 380.027 200.742Z" fill="#F1F0FF"/>
<path d="M378.297 195.702C385.225 189.537 387.349 179.015 383.043 172.202C378.737 165.388 369.63 164.863 362.703 171.028C355.776 177.194 353.651 187.715 357.957 194.529C362.263 201.343 371.37 201.868 378.297 195.702Z" stroke="#FFB000" stroke-width="5" stroke-linejoin="round"/>
<path d="M381.037 183.503C380.336 189.985 375.121 195.534 369.393 195.906" stroke="#D1D1FF" stroke-width="5" stroke-linejoin="round"/>
<path d="M356.242 199.154L339.272 222.576C338.909 223.185 338.754 223.935 338.838 224.674C338.922 225.414 339.239 226.088 339.726 226.561C339.959 226.79 340.229 226.96 340.52 227.06C340.811 227.16 341.116 227.188 341.416 227.141C341.716 227.095 342.005 226.976 342.265 226.792C342.524 226.607 342.749 226.361 342.925 226.069L359.895 202.643C360.259 202.034 360.414 201.284 360.33 200.545C360.246 199.805 359.929 199.131 359.442 198.659C359.209 198.429 358.939 198.259 358.648 198.159C358.357 198.059 358.052 198.031 357.751 198.078C357.451 198.124 357.162 198.244 356.902 198.429C356.643 198.614 356.418 198.861 356.242 199.154Z" fill="white" stroke="#6562CF" stroke-width="5" stroke-miterlimit="10"/>
<path d="M334.704 212.36C336.917 209.915 351.403 205.608 352.876 206.698C354.349 207.788 366.062 210.425 366.062 210.425C366.062 210.425 365.829 213.747 361.186 213.174C355.795 212.509 354.653 213.854 354.653 213.854C354.653 213.854 355.399 217.353 353.726 218.687C352.053 220.021 354.265 221.907 351.937 224.498C350.571 226.012 350.514 227.895 348.734 228.295C346.954 228.695 336.058 222.152 334.257 218.149C332.718 214.77 333.389 213.811 334.704 212.36Z" fill="#B6732B"/>
<path d="M282.831 168.874C286.311 167.143 302.512 154.864 310.903 141.665L316.285 160.243C316.285 160.243 319.863 179.118 299.753 180.413C287.292 181.195 282.831 168.874 282.831 168.874Z" fill="#B6732B"/>
<path d="M311.86 175.806C304.557 167.738 305.863 152.097 310.697 141.984C310.768 141.878 310.837 141.771 310.903 141.665L316.288 160.243C316.288 160.243 318.104 169.829 311.86 175.806Z" fill="#A85F2B"/>
<path d="M338.166 127.882C343.277 128.279 346.814 137.15 344.443 145.222C342.072 153.293 332.629 169.405 326.17 168.849C315.709 167.954 310.339 150.738 310.569 143.541C310.569 143.541 310.655 135.289 318.34 137.171C324.658 138.71 330.917 136.683 333.628 132.606C336.338 128.53 338.166 127.882 338.166 127.882Z" fill="#B6732B"/>
<path d="M684.087 435.181C684.929 435.186 685.739 434.822 686.344 434.168C686.948 433.514 687.299 432.621 687.321 431.682L674.571 273.97H661.892L680.851 431.682C680.873 432.622 681.225 433.514 681.83 434.168C682.435 434.822 683.245 435.186 684.087 435.181Z" fill="white" stroke="#6562CF" stroke-width="5" stroke-miterlimit="10"/>
<path d="M606.892 435.181C606.049 435.186 605.239 434.822 604.634 434.168C604.029 433.514 603.677 432.622 603.655 431.682L616.404 273.97H629.084L610.134 431.682C610.113 432.623 609.761 433.517 609.154 434.172C608.548 434.826 607.735 435.189 606.892 435.181Z" fill="white" stroke="#6562CF" stroke-width="5" stroke-miterlimit="10"/>
<path d="M599.683 254.117H691.292C696.101 254.117 700 258.468 700 263.835V264.252C700 269.619 696.101 273.97 691.292 273.97H599.683C594.874 273.97 590.976 269.619 590.976 264.252V263.835C590.976 258.468 594.874 254.117 599.683 254.117Z" fill="white" stroke="#FFB000" stroke-width="7" stroke-linejoin="round"/>
<path d="M461.598 429.627C461.598 429.627 481.492 429.627 490.846 429.563C498.714 429.506 514.303 430.271 514.449 426.047C514.585 422.155 511.057 412.034 510.512 408.62C504.288 408.825 498.115 407.319 492.535 404.233C490.507 406.444 479.2 418.363 469.912 419.583C459.667 420.931 461.598 429.627 461.598 429.627Z" fill="#6562CF"/>
<path d="M583.485 436.787C583.485 436.787 611.545 437.293 614.959 436.787C618.373 436.281 628.025 427.302 628.025 427.302C628.025 419.583 623.521 410.987 622.411 408.089C618.607 409.377 612.312 410.767 603.925 410.063C603.712 412.72 602.438 422.06 595.049 423.153C582.81 424.95 583.485 436.787 583.485 436.787Z" fill="#6562CF"/>
<path d="M606.92 425.594C606.92 425.594 602.393 422.148 594.748 422.106" stroke="white" stroke-width="5" stroke-miterlimit="10"/>
<path d="M660.259 205.551C660.259 205.551 673.598 232.406 668.254 252.248C662.909 272.091 631.284 268.815 631.284 268.815C631.284 268.815 641.383 313.075 626.618 406.282C626.618 406.282 614.962 413.357 595.071 408.634C595.071 408.634 592.101 365.231 578.303 269.335L552.31 271.009C552.31 271.009 562.326 323.748 515.333 407.966C515.333 407.966 502.15 411.857 487.6 401.078C487.6 401.078 505.985 306.01 509.117 247.809C510.036 230.669 536.276 214.824 587.885 205.222C587.885 205.222 641.998 209.036 660.259 205.551Z" fill="#424D76"/>
<path d="M577.345 269.689C576.296 262.968 571.005 234.312 605.158 224.895" stroke="white" stroke-width="5" stroke-miterlimit="10"/>
<path d="M628.022 257.909C628.022 257.909 631.03 262.253 632.235 269.544" stroke="white" stroke-width="5" stroke-miterlimit="10"/>
<path d="M585.682 193.191C585.682 193.191 554.573 125.119 550.858 103.667C546.059 76.0092 556.294 66.1391 562.399 63.9175C568.504 61.6958 609.63 49.4131 609.63 49.4131C617.2 50.623 649.853 57.7797 660.64 65.2618C666.12 69.1037 660.145 193.877 660.145 193.877C662.114 200.687 668.552 217.654 668.552 217.654C668.552 217.654 647.402 226.576 608.128 219.536L600.365 205.898C600.365 205.898 595.432 215.772 593.328 216.476C591.223 217.18 578.797 213.844 573.449 208.236C573.449 208.219 585.701 198.589 585.682 193.191Z" fill="#DBDAFF"/>
<path d="M599.953 100.274C598.685 100.274 597.658 99.1273 597.658 97.7128C597.658 96.2982 598.685 95.1515 599.953 95.1515C601.22 95.1515 602.248 96.2982 602.248 97.7128C602.248 99.1273 601.22 100.274 599.953 100.274Z" stroke="white" stroke-width="5" stroke-miterlimit="10"/>
<path d="M599.953 123.994C598.685 123.994 597.658 122.847 597.658 121.433C597.658 120.018 598.685 118.872 599.953 118.872C601.22 118.872 602.248 120.018 602.248 121.433C602.248 122.847 601.22 123.994 599.953 123.994Z" stroke="white" stroke-width="5" stroke-miterlimit="10"/>
<path d="M600.333 144.958C599.066 144.958 598.038 143.812 598.038 142.397C598.038 140.982 599.066 139.836 600.333 139.836C601.601 139.836 602.628 140.982 602.628 142.397C602.628 143.812 601.601 144.958 600.333 144.958Z" stroke="white" stroke-width="5" stroke-miterlimit="10"/>
<path d="M601.601 163C600.334 163 599.306 161.854 599.306 160.439C599.306 159.025 600.334 157.878 601.601 157.878C602.868 157.878 603.896 159.025 603.896 160.439C603.896 161.854 602.868 163 601.601 163Z" stroke="white" stroke-width="5" stroke-miterlimit="10"/>
<path d="M602.869 184.226C601.601 184.226 600.574 183.08 600.574 181.665C600.574 180.25 601.601 179.104 602.869 179.104C604.136 179.104 605.164 180.25 605.164 181.665C605.164 183.08 604.136 184.226 602.869 184.226Z" stroke="white" stroke-width="5" stroke-miterlimit="10"/>
<path d="M606.673 202.268C605.405 202.268 604.378 201.122 604.378 199.707C604.378 198.293 605.405 197.146 606.673 197.146C607.94 197.146 608.968 198.293 608.968 199.707C608.968 201.122 607.94 202.268 606.673 202.268Z" stroke="white" stroke-width="5" stroke-miterlimit="10"/>
<path d="M610.112 46.2009C610.112 46.2009 602.248 59.177 599.813 66.1993C599.813 66.1993 604.524 66.638 609.614 73.448C609.614 73.448 624.373 59.1593 626.646 53.1135C626.646 53.1135 613.393 47.1773 610.112 46.2009Z" fill="white"/>
<path d="M605.592 56.1028C600.13 66.1993 594.643 80.4171 593.759 90.7931C593.182 97.5536 594.973 172.492 594.973 172.492C595.236 180.08 594.729 201.66 608.445 218.81" stroke="white" stroke-width="5" stroke-miterlimit="10" stroke-linecap="round"/>
<path d="M593.759 90.7931L581.406 69.5353" stroke="white" stroke-width="5" stroke-miterlimit="10"/>
<path d="M655.616 62.74C683.358 72.0405 705.392 132.163 697.065 162.244C694.507 171.481 673.96 172.737 654.081 172.712C627.454 172.68 595.017 172.492 595.017 172.492L594.285 157.015C594.285 157.015 631.429 138.06 655.524 137.593C655.511 137.593 616.449 49.6118 655.616 62.74Z" fill="#DBDAFF"/>
<path d="M595.017 172.492L594.833 157.071C594.833 157.071 631.357 138.64 655.511 137.214C655.511 137.214 647.903 117.619 642.936 98.9156" stroke="white" stroke-width="5" stroke-miterlimit="10"/>
<path d="M594.142 170.652C594.142 170.652 588.624 177.374 583.843 175.909C579.063 174.445 574.6 173.401 572.08 174.66C568.964 176.217 565.769 179.875 563.794 179.68C561.404 179.471 559.072 178.75 556.925 177.558C558.304 174.799 559.807 172.12 561.429 169.531C559.692 170.61 557.35 172.909 556.075 173.755C554.028 175.127 552.76 172.927 552.76 172.927C552.76 172.927 556.427 167.741 557.987 166.428C559.483 165.165 564.85 161.292 567.122 161.062C569.861 160.51 586.598 155.773 594.088 156.816L594.142 170.652Z" fill="#B6732B"/>
<path d="M559.416 177.781C559.416 177.781 565.946 168.286 567.658 167.698C570.673 166.662 574.603 165.282 574.603 165.282" stroke="#A85F2B" stroke-width="3" stroke-miterlimit="10" stroke-linecap="round"/>
<path d="M562.323 178.853C562.323 178.853 568.178 170.957 569.887 170.362C572.901 169.322 576.832 167.946 576.832 167.946" stroke="#A85F2B" stroke-width="3" stroke-miterlimit="10" stroke-linecap="round"/>
<path d="M602.628 153.633L608.876 173.564" stroke="white" stroke-width="5" stroke-miterlimit="10"/>
<path d="M662.323 173.772C635.696 173.741 595.017 172.492 595.017 172.492" stroke="white" stroke-width="5" stroke-miterlimit="10"/>
<path d="M453.261 209.662C451.226 212.064 442.62 223.144 439.019 224.304C435.418 225.465 424.073 222.854 423.169 222.242C422.266 221.63 417.089 216.911 417.089 216.911C417.089 216.911 418.804 213.14 422.542 215.566C426.979 218.446 432.409 215.184 434.682 212.736C435.633 211.725 436.35 208.289 434.793 206.857C433.237 205.424 429.487 209.184 427.953 209.333C425.61 209.574 423.917 207.087 423.917 207.087C423.917 207.087 429.994 201.508 431.154 200.432C432.314 199.357 440.689 195.437 447.403 196.307C454.117 197.178 457.981 204.097 453.261 209.662Z" fill="#B6732B"/>
<path d="M563.265 63.9423C563.265 63.9423 545.491 67.3915 533.107 83.502C523.258 96.3083 501.687 144.265 500.812 145.241C499.937 146.218 454.136 186.094 445.39 194.585C445.39 194.585 452.253 198.122 455.239 212.195C455.239 212.195 513.612 191.811 531.186 171.045C555.964 141.746 580.816 98.4097 563.265 63.9423Z" fill="#DBDAFF"/>
<path d="M452.998 186.802C452.998 186.802 463.775 193.24 465.065 208.657" stroke="white" stroke-width="5" stroke-miterlimit="10"/>
<path d="M552.76 106.851C552.76 106.851 554.687 121.153 558.713 131.26" stroke="white" stroke-width="5" stroke-miterlimit="10"/>
<path d="M439.488 210.044H396.454C390.526 210.044 385.727 215.704 385.727 222.659V267.588C385.727 274.557 380.921 280.203 375 280.203H418.04C423.965 280.203 428.767 274.543 428.767 267.588V223.133C428.73 220.382 429.546 217.7 431.076 215.541C432.606 213.383 434.756 211.879 437.164 211.286L439.494 210.815L439.488 210.044Z" fill="white" stroke="#6562CF" stroke-width="5" stroke-miterlimit="10"/>
<path d="M394.812 225.536H419.27" stroke="#FFB000" stroke-width="7" stroke-linejoin="round"/>
<path d="M394.812 244.589H419.27" stroke="#FFB000" stroke-width="7" stroke-linejoin="round"/>
<path d="M394.812 254.116H419.27" stroke="#FFB000" stroke-width="7" stroke-linejoin="round"/>
<path d="M394.812 263.643H419.27" stroke="#FFB000" stroke-width="7" stroke-linejoin="round"/>
<path d="M394.812 235.062H419.27" stroke="#FFB000" stroke-width="7" stroke-linejoin="round"/>
<path d="M593.968 37.0708C595.09 38.737 596.881 45.9503 608.359 49.4526C608.359 49.4526 596.406 66.8189 593.461 88.6852L580.781 66.7199L593.968 37.0708Z" fill="#A85F2B"/>
<path d="M545.786 23.9843C546.715 27.3451 551.115 27.0656 551.13 27.6812C551.146 28.2967 548.791 29.45 549.327 32.2235C549.837 34.8591 551.768 35.2907 553.495 35.1032C553.498 34.9147 553.513 34.7267 553.54 34.5407C554.731 26.6588 571.348 19.8983 578.55 25.3109C583.083 28.7876 586.418 33.887 588.002 39.7658C588.002 39.7658 589.546 34.3921 592.51 35.5914C593.002 35.7744 593.452 36.0778 593.825 36.4793C593.147 33.0089 591.828 23.252 591.882 20.9454C591.946 18.317 596.761 11.6803 593.039 7.50233C589.318 3.32435 585.019 6.58608 585.019 6.58608C585.019 6.58608 582.988 -0.340662 577.016 0.0131037C571.706 0.36687 570.359 4.2583 570.359 4.2583C570.359 4.2583 568.888 0.915207 566.048 1.54845C565.427 1.70791 564.842 2.00732 564.328 2.42829C563.815 2.84927 563.384 3.38293 563.062 3.99651C563.062 3.99651 559.512 1.42817 556.944 3.55076C556.224 4.10965 555.685 4.91386 555.408 5.84302C555.132 6.77219 555.132 7.77632 555.41 8.70514C555.41 8.70514 550.43 6.72051 547.837 11.1815C546.125 14.1142 548.772 18.225 548.772 18.225C548.772 18.225 544.835 20.62 545.786 23.9843Z" fill="#424D76"/>
<path d="M590.421 47.0924C590.421 47.0924 593.949 55.9365 588.376 62.3043C581.685 69.9598 573.728 72.2558 570.942 72.047C568.156 71.8383 552.487 41.3791 553.508 34.5478C554.7 26.6659 571.316 19.9019 578.518 25.3145C583.052 28.7922 586.387 33.8928 587.971 39.773C587.971 39.773 589.518 34.3993 592.481 35.5985C598.089 37.8662 590.421 47.0924 590.421 47.0924Z" fill="#B6732B"/>
<path d="M583.07 28.18C583.961 30.6564 590.995 44.9026 586.015 52.0522C581.035 59.2018 577.323 48.8117 567.924 52.5227C562.32 54.7302 563.696 60.9706 563.696 60.9706C563.696 60.9706 565.306 64.9116 567.687 73.0553C568.229 74.8984 588.887 70.9327 592 55.9542C593.353 49.4485 589.533 39.306 586.474 33.3132C584.636 29.6977 583.07 28.18 583.07 28.18Z" fill="#424D76"/>
<path d="M834.303 399.374H825.778V464.585H834.303V399.374Z" fill="#F0E1D4" stroke="#D8BAA3" stroke-width="5" stroke-miterlimit="10" stroke-linecap="round"/>
<path d="M821.516 351.128H838.568V396.906C838.566 398.158 838.14 399.358 837.384 400.242C836.627 401.127 835.602 401.623 834.533 401.622H825.542C824.473 401.622 823.447 401.125 822.691 400.239C821.935 399.353 821.51 398.151 821.51 396.899V351.128H821.516Z" fill="white" stroke="#D8BAA3" stroke-width="5" stroke-miterlimit="10" stroke-linecap="round"/>
<path d="M859.357 475.741V490.647H851.214V484.622C851.214 481.662 850.21 478.824 848.424 476.731C846.638 474.638 844.215 473.462 841.689 473.462H818.486C815.96 473.462 813.538 474.638 811.751 476.731C809.965 478.824 808.962 481.662 808.962 484.622V490.647H800.819V475.741C800.819 472.781 801.822 469.943 803.609 467.85C805.395 465.757 807.818 464.581 810.344 464.581H849.835C852.36 464.582 854.782 465.758 856.568 467.851C858.353 469.944 859.357 472.782 859.357 475.741Z" fill="#F0E1D4" stroke="#D8BAA3" stroke-width="5" stroke-miterlimit="10" stroke-linecap="round"/>
<path d="M855.242 504.969C859.914 504.969 863.701 500.533 863.701 495.06C863.701 489.587 859.914 485.15 855.242 485.15C850.571 485.15 846.784 489.587 846.784 495.06C846.784 500.533 850.571 504.969 855.242 504.969Z" fill="white" stroke="#D8BAA3" stroke-width="5" stroke-miterlimit="10" stroke-linecap="round"/>
<path d="M804.553 504.969C809.224 504.969 813.011 500.533 813.011 495.06C813.011 489.587 809.224 485.15 804.553 485.15C799.881 485.15 796.095 489.587 796.095 495.06C796.095 500.533 799.881 504.969 804.553 504.969Z" fill="white" stroke="#D8BAA3" stroke-width="5" stroke-miterlimit="10" stroke-linecap="round"/>
<path d="M849.784 328.253L870.806 255.871H885.836L864.815 328.253H849.784Z" fill="#F0E1D4" stroke="#D8BAA3" stroke-width="5" stroke-miterlimit="10" stroke-linecap="round"/>
<path d="M845.659 328.253L866.68 255.871H881.71L860.689 328.253H845.659Z" fill="white" stroke="#D8BAA3" stroke-width="5" stroke-miterlimit="10" stroke-linecap="round"/>
<path d="M896.676 336.533C896.676 337.941 894.861 339.295 891.578 340.503C881.87 344.108 859.348 346.636 833.113 346.636C808.968 346.636 787.97 344.495 777.207 341.342C776.276 341.071 775.422 340.791 774.646 340.503C771.363 339.284 769.548 337.941 769.548 336.533C769.548 335.338 770.848 334.195 773.238 333.131C782.02 329.223 805.514 326.426 833.113 326.426C868.219 326.426 896.676 330.953 896.676 336.533Z" fill="white" stroke="#D8BAA3" stroke-width="5" stroke-miterlimit="10" stroke-linecap="round"/>
<path d="M896.675 336.533V344.474C896.675 350.054 868.218 354.577 833.113 354.577C808.967 354.577 787.969 352.436 777.207 349.284C772.32 347.854 769.544 346.218 769.544 344.474V336.533C769.544 337.941 771.36 339.295 774.643 340.503C775.417 340.791 776.271 341.071 777.204 341.342C787.967 344.495 808.964 346.636 833.11 346.636C859.339 346.636 881.866 344.108 891.574 340.503C894.86 339.284 896.675 337.941 896.675 336.533Z" fill="#F0E1D4" stroke="#D8BAA3" stroke-width="5" stroke-miterlimit="10" stroke-linecap="round"/>
<path d="M927.584 210.258H847.35C845.302 210.258 843.436 211.94 842.561 214.578L821.121 288.258C820.237 290.889 821.599 293.921 823.644 293.921H902.861C905.514 293.921 907.948 291.735 909.083 288.303L930.107 215.921C930.979 213.287 929.63 210.258 927.584 210.258Z" fill="white" stroke="#D8BAA3" stroke-width="5" stroke-miterlimit="10" stroke-linecap="round"/>
<path d="M759.978 278.673L746.749 281.09C745.081 285.831 741.149 291.21 740.309 291.732C739.399 292.284 734.666 295.274 734.666 295.274C734.666 295.274 733.764 293.451 734.527 291.856C735.028 290.82 738.126 289.042 737.769 287.588C737.412 286.135 735.562 286.304 734.742 286.732C732.78 287.768 729.255 290.351 729.632 294.201C729.956 297.45 727.407 297.757 727.407 297.757C727.407 297.757 726.069 293.614 725.978 292.83C725.886 292.046 726.432 284.281 728.041 282.002C729.326 280.196 735.588 276.664 739.083 274.837L756.766 265.456L759.978 278.673Z" fill="#FFCFC9"/>
<path d="M816.995 207.434C816.995 207.434 819.763 252.77 811.101 264.33C802.44 275.89 773.131 282.637 759.663 279.046L756.309 265.321C769.612 254.786 789.022 240.985 789.022 240.985C789.022 240.985 795.482 177.463 805.796 169.542C816.111 161.622 816.648 198.467 816.995 207.434Z" fill="#FFB000"/>
<path d="M756.424 265.68C758.233 269.711 759.277 274.153 759.483 278.701" stroke="white" stroke-width="4" stroke-miterlimit="10" stroke-linecap="round"/>
<path d="M757.37 267.997L764.873 263.201" stroke="white" stroke-width="4" stroke-miterlimit="10" stroke-linecap="round"/>
<path d="M758.154 270.455L762.916 268.701" stroke="white" stroke-width="4" stroke-miterlimit="10" stroke-linecap="round"/>
<path d="M758.95 273.925L768.457 272.196" stroke="white" stroke-width="4" stroke-miterlimit="10" stroke-linecap="round"/>
<path d="M759.483 276.646H764.154" stroke="white" stroke-width="4" stroke-miterlimit="10" stroke-linecap="round"/>
<path d="M792.481 506.005H756.465C756.465 506.005 755.973 499.238 760.591 498.298C764.499 497.501 768.212 492.684 768.212 492.684C768.212 492.684 777.245 498.229 782.653 489.3C788.061 480.371 787.33 471 787.33 471C789.045 473.438 793.928 479.342 794.129 488.561C794.208 494.434 793.654 500.295 792.481 506.005Z" fill="#E69900"/>
<path d="M753.144 322.158C747.126 323.118 734.067 335.756 741.432 360.678C748.797 385.601 777.325 463.511 777.054 470.731C776.691 480.371 768.212 492.684 768.212 492.684C768.212 492.684 777.245 498.229 782.653 489.3C788.061 480.371 787.327 471 787.327 471C787.327 471 791.983 410.921 783.92 361.783C780.219 339.288 763.963 320.428 753.144 322.158Z" fill="#FAB6AD"/>
<path d="M820.455 506.005H784.436C784.436 506.005 783.944 499.238 788.562 498.298C792.467 497.501 796.183 492.684 796.183 492.684C796.183 492.684 805.216 498.229 810.624 489.3C816.032 480.371 815.298 471 815.298 471C817.016 473.438 821.896 479.342 822.1 488.561C822.179 494.434 821.627 500.295 820.455 506.005Z" fill="#FFB000"/>
<path d="M781.118 321.941C776.249 326.191 771.301 335.752 778.669 360.678C786.036 385.604 805.516 463.528 805.024 470.731C804.532 477.934 796.183 492.684 796.183 492.684C796.183 492.684 805.216 498.229 810.624 489.3C816.032 480.371 815.298 471 815.298 471C815.298 471 825.719 391.93 821.74 361.783C818.764 339.143 794.639 310.122 781.118 321.941Z" fill="#FFCFC9"/>
<path d="M869.58 256.54C869.58 256.54 881.153 283.473 885.547 304.276C890.342 326.982 878.215 342.047 851.066 342.316C829.29 342.534 833.531 358.955 833.531 358.955C833.531 358.955 823.32 365.495 812.312 358.955C800.695 352.05 794.813 355.63 786.499 359.387C776.031 364.141 766.6 354.984 758.49 354.408C746.318 353.545 743.009 363.706 730.269 354.843C730.269 354.843 725.674 317.045 744.851 302.57C764.027 288.096 825.916 272.555 823.479 257.839L869.58 256.54Z" fill="#3F4D90"/>
<path d="M805.796 169.542C813.208 163.548 831.386 156.311 838.447 148.245L867.747 146.591C877.272 155.275 895.099 166.88 899.157 173.869L879.397 219.17C879.397 219.17 870.75 251.002 869.515 257.41C868.28 263.819 837.392 265.072 822.568 258.654C822.568 258.654 818.148 230.34 816.745 228.679C815.342 227.019 807.744 222.074 809.162 209.865L805.796 169.542Z" fill="#FFB000"/>
<path d="M822.863 258.308C822.863 258.308 817.853 230.34 816.45 228.679C815.047 227.019 807.753 222.119 808.867 209.865C809.427 203.705 813.753 193.07 813.753 193.07" stroke="white" stroke-width="4" stroke-miterlimit="10" stroke-linecap="round"/>
<path d="M829.777 282.499C829.621 283.559 828.869 286.988 825.845 288.69C822.309 290.672 821.737 290.938 818.643 292.93C816.176 294.522 814.47 298.202 813.379 299.739C810.933 303.192 809.029 292.754 809.666 290.613C812.513 285.344 818.454 278.528 823.084 275.251C824.455 274.366 825.874 273.588 827.334 272.924C831.115 271.198 837.725 268.435 845.04 265.421L848.281 278.666L829.777 282.499Z" fill="#FFCFC9"/>
<path d="M845.016 265.335C858.319 254.8 880.691 244.107 880.691 244.107L878.966 202.786C878.554 192.935 881.648 183.257 887.675 176.369C893.056 170.219 899.463 167.716 903.044 183.62C903.044 183.62 914.897 243.409 902.749 264.34C895.382 277.054 861.823 282.64 848.355 279.07L845.016 265.335Z" fill="#FFB000"/>
<path d="M845.016 265.335C858.319 254.8 880.69 244.107 880.69 244.107L879.397 219.17" stroke="white" stroke-width="4" stroke-miterlimit="10" stroke-linecap="round"/>
<path d="M844.721 265.68C846.529 269.712 847.573 274.153 847.78 278.701" stroke="white" stroke-width="4" stroke-miterlimit="10" stroke-linecap="round"/>
<path d="M845.667 267.997L853.168 263.201" stroke="white" stroke-width="4" stroke-miterlimit="10" stroke-linecap="round"/>
<path d="M846.448 270.455L851.214 268.701" stroke="white" stroke-width="4" stroke-miterlimit="10" stroke-linecap="round"/>
<path d="M847.247 273.925L856.754 272.196" stroke="white" stroke-width="4" stroke-miterlimit="10" stroke-linecap="round"/>
<path d="M847.78 276.646H852.452" stroke="white" stroke-width="4" stroke-miterlimit="10" stroke-linecap="round"/>
<path d="M887.985 122.88C887.985 122.88 849.083 136.671 815.869 134.809C815.869 134.809 804.815 118.678 811.399 111.575C817.346 105.163 825.274 101.376 821.979 96.2757C818.684 91.1758 815.513 83.6624 824.808 77.5958C834.103 71.5291 850.807 62.089 860.986 67.731C868.498 71.9089 864.34 83.6141 868.864 83.7971C874.101 84.0077 880.767 88.0855 878.987 98.3543C876.691 111.582 891.279 101.099 887.985 122.88Z" fill="#722D54"/>
<path d="M811.744 134.81C811.744 134.81 798.868 119.493 808.154 110.202C814.299 104.052 822.029 101.383 818.734 96.2833C815.439 91.1835 812.268 83.6701 821.563 77.6034C830.858 71.5368 847.78 64.6242 857.745 67.0411" stroke="#722D54" stroke-width="3" stroke-miterlimit="10"/>
<path d="M860.692 110.202C860.692 110.202 859.103 135.014 867.765 146.595C867.765 146.595 856.81 166.031 838.102 166.856C819.394 167.681 838.465 148.249 838.465 148.249C838.465 148.249 843.053 140.998 842.343 122.608L860.692 110.202Z" fill="#FFCFC9"/>
<path d="M860.571 110.281C857.963 118.327 851.647 134.134 841.886 135.625C842.38 131.311 842.532 126.952 842.34 122.605L860.571 110.281Z" fill="#FAB6AD"/>
<path d="M860.692 110.202C860.692 110.202 855.042 127.017 840.923 127.017C838.453 127.017 828.993 115.944 829.691 98.0132C830.39 80.0825 846.923 79.5853 846.923 79.5853C846.923 79.5853 845.744 98.3343 859.81 100.955C859.81 100.955 863.394 97.2328 864.82 100.541C866.247 103.848 860.692 110.202 860.692 110.202Z" fill="#FFCFC9"/>
<path d="M846.923 79.2504C846.923 79.2504 841.618 98.3446 855.685 100.965" stroke="#722D54" stroke-width="3" stroke-miterlimit="10"/>
<path d="M864.337 117.094C866.616 117.094 868.463 114.929 868.463 112.26C868.463 109.59 866.616 107.426 864.337 107.426C862.058 107.426 860.211 109.59 860.211 112.26C860.211 114.929 862.058 117.094 864.337 117.094Z" stroke="white" stroke-width="4" stroke-miterlimit="10"/>
<path d="M867.423 145.093C867.717 145.055 868.375 146.533 868.13 146.726C864.337 149.706 851.747 154.322 843.419 151.277C832.438 147.258 839.546 143.632 840.472 144.243C843.375 146.111 855.06 146.591 867.423 145.093Z" fill="white" stroke="#D8BAA3" stroke-width="5" stroke-miterlimit="10" stroke-linecap="round"/>
<path d="M871.932 143.601C871.932 143.601 876.058 136.35 881.916 137.334C881.916 137.334 879.025 144.83 871.932 143.601Z" fill="white" stroke="#D8BAA3" stroke-width="5" stroke-miterlimit="10" stroke-linecap="round"/>
<path d="M872.365 144.35C872.365 144.35 883.216 144.299 887.301 153.59C887.301 153.59 877.278 155.607 872.365 144.35Z" fill="white" stroke="#D8BAA3" stroke-width="5" stroke-miterlimit="10" stroke-linecap="round"/>
<path d="M869.937 147.306C871.157 147.306 872.147 146.147 872.147 144.716C872.147 143.286 871.157 142.127 869.937 142.127C868.716 142.127 867.726 143.286 867.726 144.716C867.726 146.147 868.716 147.306 869.937 147.306Z" fill="white" stroke="#D8BAA3" stroke-width="5" stroke-miterlimit="10" stroke-linecap="round"/>
<path d="M809.678 293.075H729.467C728.464 293.073 727.482 292.738 726.635 292.108C725.787 291.479 725.11 290.581 724.681 289.519L700.267 228.9C700.067 228.403 699.976 227.854 700.005 227.305C700.034 226.755 700.181 226.223 700.433 225.759C700.684 225.294 701.032 224.911 701.444 224.646C701.855 224.381 702.317 224.242 702.787 224.242H782.008C783.312 224.242 784.589 224.676 785.691 225.494C786.792 226.312 787.673 227.48 788.229 228.862L812.2 288.414C812.401 288.912 812.491 289.461 812.462 290.011C812.433 290.56 812.286 291.093 812.034 291.558C811.782 292.023 811.434 292.406 811.022 292.671C810.61 292.936 810.148 293.075 809.678 293.075Z" fill="white" stroke="#FFB000" stroke-width="6" stroke-miterlimit="10"/>
<path d="M854.683 293.075H726.747C725.285 293.075 724.1 294.463 724.1 296.176V296.859C724.1 298.572 725.285 299.96 726.747 299.96H854.683C856.144 299.96 857.329 298.572 857.329 296.859V296.176C857.329 294.463 856.144 293.075 854.683 293.075Z" fill="white" stroke="#FFB000" stroke-width="6" stroke-miterlimit="10"/>
</svg>
