<svg width="946" height="530" viewBox="0 0 946 530" fill="none" xmlns="http://www.w3.org/2000/svg">
<path d="M81.7532 430.189H140.225" stroke="#424D76" stroke-width="5" stroke-miterlimit="10" stroke-linecap="round"/>
<path d="M61.4786 301.539L164.24 469.288" stroke="#424D76" stroke-width="5" stroke-miterlimit="10" stroke-linecap="round"/>
<path d="M160.499 301.539L57.7385 469.288" stroke="#424D76" stroke-width="5" stroke-miterlimit="10" stroke-linecap="round"/>
<path d="M181.79 287.585C181.79 289.015 178.6 290.358 172.993 291.525C160.932 294.039 137.684 295.742 110.991 295.742C84.2986 295.742 61.0506 294.039 48.9965 291.521C43.3864 290.354 40.1999 289.011 40.1999 287.582C40.1999 283.079 71.8966 279.425 110.999 279.425C150.101 279.425 181.79 283.079 181.79 287.585Z" fill="white" stroke="#FFB000" stroke-width="5" stroke-miterlimit="10"/>
<path d="M181.788 287.585V295.465C181.788 299.967 150.087 303.621 110.989 303.621C71.8908 303.621 40.1903 299.971 40.1903 295.465V287.585C40.1903 289.015 43.3806 290.358 48.9869 291.525C61.0485 294.039 84.2927 295.742 110.989 295.742C137.685 295.742 160.93 294.039 172.991 291.521C178.597 290.358 181.788 289.015 181.788 287.585Z" fill="#FFD880" stroke="#FFB000" stroke-width="5" stroke-miterlimit="10"/>
<path d="M99.5707 411.403C102.701 413.196 109.399 413.395 110.593 417.999C111.786 422.602 105.229 440.829 106.273 447.264C107.316 453.698 107.223 467.438 96.5936 468.924C84.8312 470.567 75.8963 466.534 75.8963 462.05C75.8963 457.566 82.7481 452.479 83.7766 444.862C84.8051 437.246 87.5166 420.813 87.5166 420.813L99.5707 411.403Z" fill="#FFB000"/>
<path d="M84.5695 431.468C84.5695 431.468 89.5325 427.153 97.1434 431.468" stroke="white" stroke-width="4" stroke-linecap="round" stroke-linejoin="round"/>
<path d="M83.4474 436.721C83.4474 436.721 88.4105 432.406 96.0214 436.721" stroke="white" stroke-width="4" stroke-linecap="round" stroke-linejoin="round"/>
<path d="M82.3254 441.974C82.3254 441.974 87.2885 437.659 94.8994 441.974" stroke="white" stroke-width="4" stroke-linecap="round" stroke-linejoin="round"/>
<path d="M139.682 434.027C137.693 436.946 126.218 444.116 126.821 447.402C127.423 450.689 137.988 460.249 138.733 465.325C139.477 470.402 138.437 478.022 142.903 480.266C147.368 482.509 171.046 482.656 174.917 480.266C178.788 477.876 174.618 470.255 170.448 468.612C166.278 466.969 155.114 448.299 155.757 436.796L139.682 434.027Z" fill="#FFB000"/>
<path d="M160.66 447.508C160.66 447.508 155.697 443.193 148.086 447.508" stroke="white" stroke-width="4" stroke-linecap="round" stroke-linejoin="round"/>
<path d="M162.53 452.76C162.53 452.76 157.567 448.446 149.956 452.76" stroke="white" stroke-width="4" stroke-linecap="round" stroke-linejoin="round"/>
<path d="M164.774 458.013C164.774 458.013 159.811 453.698 152.2 458.013" stroke="white" stroke-width="4" stroke-linecap="round" stroke-linejoin="round"/>
<path d="M68.536 232.177C68.536 232.177 0 259.551 0 283.102C0 325.097 58.4454 402.413 70.406 401.254C82.3666 400.094 90.4189 390.418 89.9588 385.342C89.4988 380.266 67.8927 314.941 52.4539 292.786C52.4539 292.786 99.6231 280.78 105.835 280.554C112.047 280.329 144.025 297.633 144.485 298.324C144.945 299.014 127.954 345.808 137.812 406.792C139.193 415.331 164.958 417.177 167.49 413.718C170.022 410.258 198.532 289.784 194.635 280.093C190.738 270.402 157.982 243.876 138.186 233.303C123.922 225.686 68.536 232.177 68.536 232.177Z" fill="#424D76"/>
<path d="M159.583 425.968C159.157 427.288 157.133 433.505 155.757 436.796C154.441 439.936 138.041 438.871 139.675 434.023C141.07 429.896 141.092 424.268 141.066 422.685C143.752 423.754 151.366 426.437 159.583 425.968Z" fill="#C36F0B"/>
<path d="M159.897 425.949L164.479 415.001C164.479 415.001 149.605 416.854 139.682 409.977L140.056 422.253C140.056 422.253 150.371 426.966 159.897 425.949Z" fill="#6562CF"/>
<path d="M92.8087 398.485C92.8087 398.485 98.2318 409.759 99.5707 411.403C100.91 413.046 93.467 421.409 87.5129 420.813L77.9982 407.947C77.9982 407.947 88.2048 406.034 92.8087 398.485Z" fill="#C36F0B"/>
<path d="M89.353 388.595L93.1828 398.485C93.1828 398.485 87.2399 406.758 77.2503 408.322L70.406 401.254C70.406 401.254 83.2231 399.704 89.353 388.595Z" fill="#6562CF"/>
<path d="M133.268 91.1684C139.32 95.6294 155.761 103.43 165.994 110.615C174.248 116.411 181.612 141.756 181.612 141.756C181.612 141.756 170.119 153.514 150.813 158.125C150.813 158.125 139.78 192.268 135.643 232.143C135.643 232.143 100.244 245.275 68.2966 232.143C68.2966 232.143 55.4234 159.048 53.8152 158.605C52.207 158.163 28.3531 150.82 20.529 139.058C20.529 139.058 29.7556 112.393 42.3333 107.167C55.9994 101.486 74.2096 93.7009 80.5452 90.2829C83.7766 88.512 133.268 91.1684 133.268 91.1684Z" fill="#EAEAFF"/>
<path d="M48.6876 104.484L21.8567 140.795C21.565 140.446 21.2845 140.093 21.0264 139.733L46.3501 105.471L48.6876 104.484Z" fill="white"/>
<path d="M61.8076 98.8861L27.1563 145.785C26.8085 145.519 26.4681 145.252 26.1353 144.982L59.4215 99.9291L61.8076 98.8861Z" fill="white"/>
<path d="M75.2157 92.8905L33.189 149.758C32.815 149.541 32.441 149.323 32.067 149.094L72.7547 94.0311C73.6187 93.6334 74.4265 93.2544 75.2157 92.8905Z" fill="white"/>
<path d="M86.5554 89.6932L39.678 153.123C39.2815 152.939 38.8851 152.748 38.4849 152.557L84.8986 89.7383C85.4222 89.7195 85.972 89.7007 86.5554 89.6932Z" fill="white"/>
<path d="M95.5165 89.7121L46.5222 156.035L45.2543 155.543L93.9233 89.6896L95.5165 89.7121Z" fill="white"/>
<path d="M104.347 89.9326L53.6394 158.529C53.3814 158.45 52.9326 158.311 52.3304 158.116L102.753 89.8876C103.281 89.8989 103.804 89.9139 104.347 89.9326Z" fill="white"/>
<path d="M113.08 90.2454L56.1303 167.299C56.0069 166.713 55.8872 166.151 55.7563 165.61L111.501 90.1966L113.08 90.2454Z" fill="white"/>
<path d="M121.783 90.6131L58.0788 176.814C57.9629 176.232 57.8507 175.658 57.7385 175.095L120.223 90.5418L121.783 90.6131Z" fill="white"/>
<path d="M130.456 91.0258L59.9489 186.434C59.8367 185.856 59.7245 185.274 59.616 184.7L128.9 90.9507L130.456 91.0258Z" fill="white"/>
<path d="M137.364 93.8322L61.7665 196.121C61.6618 195.539 61.5533 194.958 61.4449 194.376L136.245 93.1531C136.604 93.3745 136.978 93.5996 137.364 93.8322Z" fill="white"/>
<path d="M143.673 97.4378L63.5805 205.835C63.472 205.257 63.3673 204.675 63.2588 204.086L142.529 96.7963C142.906 97.0139 143.288 97.2277 143.673 97.4378Z" fill="white"/>
<path d="M150.039 100.972L65.3345 215.586C65.2335 215.012 65.1288 214.427 65.0203 213.834L148.898 100.338L150.039 100.972Z" fill="white"/>
<path d="M156.363 104.563L67.0923 225.375C66.9913 224.816 66.8904 224.249 66.7782 223.615L155.234 103.925L156.363 104.563Z" fill="white"/>
<path d="M162.556 108.326L70.4359 232.991L69.1905 232.492L161.468 107.628L162.556 108.326Z" fill="white"/>
<path d="M168.301 112.727L77.7215 235.269C77.2727 235.156 76.8276 235.032 76.3788 234.893L167.374 111.763C167.68 112.07 167.983 112.386 168.301 112.727Z" fill="white"/>
<path d="M172.565 119.079L85.5082 236.889C85.0295 236.818 84.547 236.739 84.0683 236.649L171.865 117.845C172.101 118.246 172.333 118.662 172.565 119.079Z" fill="white"/>
<path d="M150.611 158.748C150.394 159.446 150.009 160.699 149.489 162.444L93.8186 237.79C93.3062 237.756 92.7976 237.722 92.2814 237.677L150.611 158.748Z" fill="white"/>
<path d="M176.103 126.436L153.139 157.51C152.481 157.694 151.811 157.885 151.138 158.035L175.501 125.063C175.703 125.528 175.905 125.986 176.103 126.436Z" fill="white"/>
<path d="M145.285 178.112C145.02 179.162 144.758 180.25 144.492 181.365L102.682 237.944C102.14 237.944 101.598 237.966 101.048 237.97L145.285 178.112Z" fill="white"/>
<path d="M179.196 134.402L165.683 152.7C164.883 153.098 164.056 153.492 163.196 153.878L178.672 132.935C178.852 133.438 179.028 133.94 179.196 134.402Z" fill="white"/>
<path d="M141.336 195.603C141.134 196.586 140.933 197.587 140.733 198.605L112.148 237.287C111.569 237.351 110.989 237.415 110.398 237.471L141.336 195.603Z" fill="white"/>
<path d="M138.381 211.763C138.235 212.682 138.085 213.605 137.943 214.535L122.299 235.696C121.689 235.816 121.061 235.94 120.429 236.072L138.381 211.763Z" fill="white"/>
<path d="M192.611 202.338C191.766 218.096 161.973 232.729 146.261 239.37C145.741 242.634 143.606 244.063 139.499 245.125C130.938 247.339 131.742 253.004 131.301 254.085C130.609 255.807 122.164 257.769 120.133 256.336C118.925 255.477 122.336 244.686 124.277 240.893C125.485 238.533 133.579 234.065 138.886 232.14C138.886 232.14 165.814 199.397 169.502 197.551C169.502 197.551 159.542 170.162 155.376 160.305C154.781 158.891 154.302 157.84 153.992 157.281C153.992 157.281 168.952 152.779 179.072 144.037C179.072 144.037 179.989 146.33 181.339 150.1C185.404 161.454 193.468 186.239 192.611 202.338Z" fill="#C36F0B"/>
<path d="M181.335 150.096C179.241 152.329 172.875 157.165 155.372 160.301C154.774 158.891 154.295 157.836 153.984 157.277C153.984 157.277 168.944 152.775 179.069 144.033C179.069 144.033 179.981 146.322 181.335 150.096Z" fill="#B65A18"/>
<path d="M84.8425 255.957C82.5723 256.962 75.7917 255.079 75.1708 254.081C74.55 253.083 73.6748 246.877 66.9764 244.746C62.1817 243.219 60.005 241.699 60.0873 236.953C46.1482 232.177 9.0808 218.01 7.40153 201.925C6.27952 191.195 17.4659 160.5 22.1372 148.272C23.3602 145.08 24.1344 143.144 24.1344 143.144C34.9094 152.148 48.8934 156.846 48.8934 156.846L47.7377 160.023L34.2474 197.085C40.3886 199.422 62.7539 226.977 66.2396 231.303C73.5065 232.713 81.2895 237.782 82.1983 240.514C83.152 243.376 87.18 254.917 84.8425 255.957Z" fill="#C36F0B"/>
<path d="M24.1381 143.136C34.9094 152.141 48.8971 156.838 48.8971 156.838L47.7414 160.012C40.3549 158.842 28.2222 155.979 22.141 148.261C23.3602 145.072 24.1381 143.136 24.1381 143.136Z" fill="#B65A18"/>
<path d="M156.857 266.244H48.5642L30.3353 194.365C30.0539 193.384 30.0038 192.351 30.189 191.348C30.3742 190.344 30.7896 189.398 31.4025 188.583C32.0153 187.769 32.8087 187.108 33.7198 186.655C34.631 186.201 35.6349 185.966 36.6522 185.968H168.784C169.8 185.968 170.802 186.205 171.711 186.66C172.62 187.114 173.412 187.775 174.023 188.589C174.634 189.404 175.048 190.349 175.233 191.352C175.417 192.354 175.367 193.386 175.086 194.365L156.857 266.244Z" fill="white" stroke="#6562CF" stroke-width="7" stroke-miterlimit="10"/>
<path d="M153.573 265.569H51.8442L34.7187 198.034C33.5967 194.084 32.8038 189.405 36.8991 189.405H168.518C172.613 189.405 171.832 194.091 170.699 198.034L153.573 265.569Z" fill="#6562CF"/>
<path d="M108.902 233.269H96.5188C96.1034 233.268 95.6999 233.129 95.3721 232.873C95.0443 232.617 94.8109 232.258 94.7087 231.854L93.2314 223.851C93.1949 223.723 93.1886 223.588 93.213 223.457C93.2374 223.326 93.2918 223.202 93.3719 223.095C93.452 222.989 93.5556 222.902 93.6747 222.843C93.7937 222.783 93.9249 222.752 94.0579 222.752H111.363C111.496 222.752 111.627 222.783 111.746 222.843C111.865 222.902 111.969 222.989 112.049 223.095C112.129 223.202 112.183 223.326 112.208 223.457C112.232 223.588 112.226 223.723 112.19 223.851L110.705 231.866C110.601 232.266 110.368 232.621 110.041 232.875C109.715 233.129 109.315 233.267 108.902 233.269Z" stroke="white" stroke-width="6" stroke-linejoin="round"/>
<path d="M119.168 69.032C119.168 69.032 118.555 82.5389 133.268 91.1684C133.268 91.1684 118.682 101.824 106.606 115.511C106.606 115.511 93.6652 99.6365 80.5564 90.2491C80.5564 90.2491 93.4258 80.1002 93.4258 69.0358L119.168 69.032Z" fill="#B65A18"/>
<path d="M131.69 61.5957C130.213 63.5392 127.546 67.1823 126.26 69.7974C123.971 82.25 116.161 90.4893 106.262 90.4893C97.682 90.4893 91.8849 80.8393 89.2146 71.8685C89.1516 71.7057 89.0992 71.539 89.0575 71.3695C88.3955 68.8969 84.8088 63.9782 83.0061 61.6145C82.8633 61.4264 82.7622 61.2098 82.7097 60.9793C82.6571 60.7488 82.6543 60.5097 82.7014 60.2781C82.7485 60.0464 82.8444 59.8275 82.9828 59.6361C83.1211 59.4447 83.2987 59.2851 83.5035 59.1682C85.7027 57.9038 86.8434 58.823 87.4418 60.0236C87.1239 51.0528 87.4941 41.6392 92.7003 41.5867C98.6843 41.5304 118.585 41.1364 122.033 42.292C124.999 43.2825 126.955 47.4509 126.963 60.774C127.43 59.2733 128.552 57.6487 131.193 59.1682C131.395 59.2854 131.57 59.4441 131.706 59.634C131.843 59.8239 131.937 60.0406 131.984 60.27C132.031 60.4993 132.029 60.7359 131.979 60.9644C131.928 61.1929 131.83 61.4081 131.69 61.5957V61.5957Z" fill="#C36F0B"/>
<path d="M135.266 45.2711C131.309 50.2611 126.622 61.8133 126.622 61.8133C126.622 61.8133 128.324 43.9316 121.427 44.1267C118.147 44.2168 111.55 48.8279 104.642 48.0775C98.905 47.4547 91.7391 39.6432 88.7882 44.7496C87.1538 48.6628 87.2698 54.8047 87.5166 61.123C85.755 53.0376 82.1123 47.6573 80.1113 44.4456C75.9076 42.2583 72.6088 37.5759 73.5588 32.8147C75.1745 24.7593 81.3643 25.2095 81.3643 25.2095C91.8027 26.2938 85.7102 20.1894 98.3627 14.4227C111.015 8.65602 125.407 14.1151 126.645 21.0636C127.497 25.8286 130.418 23.4424 134.992 25.566C141.418 28.575 139.914 39.3918 135.266 45.2711Z" fill="#FFB000"/>
<path d="M97.5698 50.6776C115.283 52.9287 117.04 43.2825 124.666 44.4494" stroke="#FFB000" stroke-width="3" stroke-miterlimit="10"/>
<path d="M293.891 396.929V479.46L253.188 526.945" stroke="#6562CF" stroke-width="6" stroke-miterlimit="10" stroke-linecap="round"/>
<path d="M304.176 396.929V479.46L344.881 526.945" stroke="#6562CF" stroke-width="6" stroke-miterlimit="10" stroke-linecap="round"/>
<path d="M298.835 480.423V526.949" stroke="#6562CF" stroke-width="6" stroke-miterlimit="10" stroke-linecap="round"/>
<path d="M284.233 385.594H314.8C314.8 388.598 313.795 391.478 312.005 393.601C310.216 395.725 307.789 396.918 305.258 396.918H293.784C291.253 396.918 288.826 395.725 287.036 393.601C285.247 391.478 284.241 388.598 284.241 385.594H284.233Z" fill="white" stroke="#6562CF" stroke-width="5" stroke-miterlimit="10"/>
<path d="M281.027 365.325H271.783L268.181 341.503H277.425L281.027 365.325Z" fill="white" stroke="#6562CF" stroke-width="5" stroke-miterlimit="10"/>
<path d="M352.566 370.399V379.632C352.566 380.853 349.748 381.999 344.849 382.972C335.438 384.844 318.351 386.097 298.832 386.097C269.159 386.097 245.101 383.202 245.101 379.632V370.399C245.101 372.208 251.28 373.843 261.236 375.017C270.927 376.16 284.197 376.865 298.832 376.865C313.467 376.865 326.74 376.157 336.431 375.017C339.663 374.635 342.496 374.207 344.849 373.74C349.748 372.767 352.566 371.62 352.566 370.399Z" fill="white" stroke="#6562CF" stroke-width="5" stroke-miterlimit="10"/>
<path d="M352.566 370.399C352.566 371.62 349.748 372.767 344.849 373.74C342.496 374.207 339.663 374.635 336.431 375.017C326.74 376.16 313.47 376.865 298.832 376.865C284.194 376.865 270.927 376.157 261.236 375.017C251.28 373.843 245.101 372.208 245.101 370.399C245.101 366.829 269.159 363.934 298.832 363.934C322.425 363.934 342.466 365.764 349.691 368.308C351.555 368.966 352.566 369.667 352.566 370.399Z" fill="white" stroke="#6562CF" stroke-width="5" stroke-miterlimit="10"/>
<path d="M282.569 344.762H265.548C250.492 344.762 236.137 330.523 233.481 312.96L227.424 272.878C224.77 255.316 234.822 241.076 249.878 241.076H266.908C281.963 241.076 296.318 255.316 298.972 272.878L305.031 312.96C307.685 330.523 297.633 344.762 282.569 344.762Z" fill="white" stroke="#6562CF" stroke-width="5" stroke-miterlimit="10"/>
<path d="M293.891 479.46H304.178" stroke="#6562CF" stroke-width="6" stroke-miterlimit="10" stroke-linecap="round"/>
<path d="M265.45 204.862C275.481 189.663 267.069 172.809 269.347 163.7C273.799 145.88 293.145 167.448 300.821 145.388C300.821 145.388 312.173 154.825 313.345 152.971L342.708 149.723C353.371 136.223 349.566 121.442 345.221 115.752C345.221 115.752 331.803 97.6126 316.524 106.406C308.332 111.123 301.662 125.918 300.019 137.546C298.244 150.119 282.399 112.776 259.343 125.423C244.248 133.735 255.699 159.613 238.055 160.232C214.879 161.05 203.873 188.35 231.041 211.939C244.102 223.294 258.794 214.95 265.45 204.862Z" fill="#6562CF"/>
<path d="M298.322 139.662L301.107 146.071" stroke="#FFB000" stroke-width="10" stroke-linecap="round" stroke-linejoin="round"/>
<path d="M226.671 227.766C229.952 221.023 229.761 213.605 226.246 211.196C222.73 208.787 217.22 212.301 213.94 219.044C210.659 225.787 210.85 233.205 214.366 235.614C217.881 238.023 223.391 234.509 226.671 227.766Z" fill="#6562CF"/>
<path d="M224.991 208.301L229.559 212.611" stroke="#FFB000" stroke-width="10" stroke-linecap="round" stroke-linejoin="round"/>
<path d="M275.71 287.312C275.71 287.312 237.566 352.161 276.984 368.878C303.2 379.996 355.852 378.942 388.182 376.985C395.941 376.515 403.336 372.93 409.153 366.817C414.97 360.705 418.864 352.427 420.195 343.343C421.106 337.152 420.148 330.779 417.491 325.342C414.834 319.906 410.648 315.755 405.668 313.618C383.235 304 345.388 287.291 322.547 282.712C322.547 282.712 303.74 294.407 275.71 287.312Z" fill="#FFBE00"/>
<path d="M451.398 494.655C451.398 494.655 441.033 499.319 448.634 525.756H450.33C450.33 525.756 452.039 512.451 453.936 512.338C455.832 512.225 461.146 525.756 463.898 525.756H486C486 525.756 485.526 520.402 482.124 519.826C478.721 519.249 471.687 510.724 471.687 510.724L451.398 494.655Z" fill="#6562CF"/>
<path d="M412.681 317.189C426.425 322.299 438.087 433.713 471.675 510.724C471.675 510.724 453.318 509.171 451.398 494.655C451.398 494.655 395.675 426.49 394.187 385.8C392.699 345.109 404.23 314.05 412.681 317.189Z" fill="#A85F2B"/>
<path d="M391.784 494.655C391.784 494.655 381.419 499.319 389.02 525.756H390.716C390.716 525.756 392.425 512.451 394.321 512.338C396.218 512.225 401.532 525.756 404.284 525.756H426.386C426.386 525.756 425.912 520.402 422.509 519.826C419.107 519.249 412.073 510.724 412.073 510.724L391.784 494.655Z" fill="#6562CF"/>
<path d="M391.846 494.761C391.846 494.761 369.124 407.711 375.198 373.598C382.597 332.062 402.504 309.606 412.037 317.189C421.57 324.772 395.687 441.802 405.149 494.761C406.318 501.297 412.764 511.436 412.764 511.436C412.764 511.436 388.289 508.414 391.846 494.761Z" fill="#B6732B"/>
<path d="M263.273 180.53C267.447 176.517 284.069 166.588 303.129 162.221C322.189 157.855 331.567 165.555 334.475 170.714C338.393 177.653 332.337 185.895 335.181 206.373C337.316 221.752 342.356 232.693 339.729 240.606C335.721 252.669 324.849 252.878 324.503 281.194C324.372 291.767 280.878 292.379 275.898 287.309C270.918 282.238 252.18 191.189 263.273 180.53Z" fill="#FFBE00"/>
<path d="M259.7 188.23C253.647 218.977 270.37 266.947 280.341 266.947C301.59 266.958 338.232 220.078 338.232 220.078L336.204 211.338L285.676 241.144C285.676 241.144 282.667 204.023 279.804 191.107C276.879 177.901 262.787 172.572 259.7 188.23Z" fill="#B6732B"/>
<path d="M380.027 200.742C386.883 194.691 388.963 184.237 384.673 177.392C380.383 170.547 371.347 169.903 364.492 175.954C357.636 182.005 355.556 192.459 359.846 199.304C364.136 206.149 373.171 206.793 380.027 200.742Z" fill="#F1F0FF"/>
<path d="M378.297 195.702C385.225 189.537 387.349 179.015 383.043 172.202C378.737 165.388 369.63 164.863 362.703 171.028C355.776 177.194 353.651 187.715 357.957 194.529C362.263 201.343 371.37 201.868 378.297 195.702Z" stroke="#FFB000" stroke-width="5" stroke-linejoin="round"/>
<path d="M381.037 183.503C380.336 189.985 375.121 195.534 369.393 195.906" stroke="#D1D1FF" stroke-width="5" stroke-linejoin="round"/>
<path d="M356.242 199.154L339.272 222.576C338.909 223.185 338.754 223.935 338.838 224.674C338.922 225.414 339.239 226.088 339.726 226.561C339.959 226.79 340.229 226.96 340.52 227.06C340.811 227.16 341.116 227.188 341.416 227.141C341.716 227.095 342.005 226.976 342.265 226.792C342.524 226.607 342.749 226.361 342.925 226.069L359.895 202.643C360.259 202.034 360.414 201.284 360.33 200.545C360.246 199.805 359.929 199.131 359.442 198.659C359.209 198.429 358.939 198.259 358.648 198.159C358.357 198.059 358.052 198.031 357.751 198.078C357.451 198.124 357.162 198.244 356.902 198.429C356.643 198.614 356.418 198.861 356.242 199.154Z" fill="white" stroke="#6562CF" stroke-width="5" stroke-miterlimit="10"/>
<path d="M334.704 212.36C336.917 209.915 351.403 205.608 352.876 206.698C354.349 207.788 366.062 210.425 366.062 210.425C366.062 210.425 365.829 213.747 361.186 213.174C355.795 212.509 354.653 213.854 354.653 213.854C354.653 213.854 355.399 217.353 353.726 218.687C352.053 220.021 354.265 221.907 351.937 224.498C350.571 226.012 350.514 227.895 348.734 228.295C346.954 228.695 336.058 222.152 334.257 218.149C332.718 214.77 333.389 213.811 334.704 212.36Z" fill="#B6732B"/>
<path d="M282.831 168.874C286.311 167.143 302.512 154.864 310.903 141.665L316.285 160.243C316.285 160.243 319.863 179.118 299.753 180.413C287.292 181.195 282.831 168.874 282.831 168.874Z" fill="#B6732B"/>
<path d="M311.86 175.806C304.557 167.738 305.863 152.097 310.697 141.984C310.768 141.878 310.837 141.771 310.903 141.665L316.288 160.243C316.288 160.243 318.104 169.829 311.86 175.806Z" fill="#A85F2B"/>
<path d="M338.166 127.882C343.277 128.279 346.814 137.15 344.443 145.222C342.072 153.293 332.629 169.405 326.17 168.849C315.709 167.954 310.339 150.738 310.569 143.541C310.569 143.541 310.655 135.289 318.34 137.171C324.658 138.71 330.917 136.683 333.628 132.606C336.338 128.53 338.166 127.882 338.166 127.882Z" fill="#B6732B"/>
<path d="M684.087 435.181C684.929 435.186 685.739 434.822 686.344 434.168C686.948 433.514 687.299 432.621 687.321 431.682L674.571 273.97H661.892L680.851 431.682C680.873 432.622 681.225 433.514 681.83 434.168C682.435 434.822 683.245 435.186 684.087 435.181Z" fill="white" stroke="#6562CF" stroke-width="5" stroke-miterlimit="10"/>
<path d="M606.892 435.181C606.049 435.186 605.239 434.822 604.634 434.168C604.029 433.514 603.677 432.622 603.655 431.682L616.404 273.97H629.084L610.134 431.682C610.113 432.623 609.761 433.517 609.154 434.172C608.548 434.826 607.735 435.189 606.892 435.181Z" fill="white" stroke="#6562CF" stroke-width="5" stroke-miterlimit="10"/>
<path d="M599.683 254.117H691.292C696.101 254.117 700 258.468 700 263.835V264.252C700 269.619 696.101 273.97 691.292 273.97H599.683C594.874 273.97 590.976 269.619 590.976 264.252V263.835C590.976 258.468 594.874 254.117 599.683 254.117Z" fill="white" stroke="#FFB000" stroke-width="7" stroke-linejoin="round"/>
<path d="M461.598 429.627C461.598 429.627 481.492 429.627 490.846 429.563C498.714 429.506 514.303 430.271 514.449 426.047C514.585 422.155 511.057 412.034 510.512 408.62C504.288 408.825 498.115 407.319 492.535 404.233C490.507 406.444 479.2 418.363 469.912 419.583C459.667 420.931 461.598 429.627 461.598 429.627Z" fill="#6562CF"/>
<path d="M583.485 436.787C583.485 436.787 611.545 437.293 614.959 436.787C618.373 436.281 628.025 427.302 628.025 427.302C628.025 419.583 623.521 410.987 622.411 408.089C618.607 409.377 612.312 410.767 603.925 410.063C603.712 412.72 602.438 422.06 595.049 423.153C582.81 424.95 583.485 436.787 583.485 436.787Z" fill="#6562CF"/>
<path d="M606.92 425.594C606.92 425.594 602.393 422.148 594.748 422.106" stroke="white" stroke-width="5" stroke-miterlimit="10"/>
<path d="M660.259 205.551C660.259 205.551 673.598 232.406 668.254 252.248C662.909 272.091 631.284 268.815 631.284 268.815C631.284 268.815 641.383 313.075 626.618 406.282C626.618 406.282 614.962 413.357 595.071 408.634C595.071 408.634 592.101 365.231 578.303 269.335L552.31 271.009C552.31 271.009 562.326 323.748 515.333 407.966C515.333 407.966 502.15 411.857 487.6 401.078C487.6 401.078 505.985 306.01 509.117 247.809C510.036 230.669 536.276 214.824 587.885 205.222C587.885 205.222 641.998 209.036 660.259 205.551Z" fill="#424D76"/>
<path d="M577.345 269.689C576.296 262.968 571.005 234.312 605.158 224.895" stroke="white" stroke-width="5" stroke-miterlimit="10"/>
<path d="M628.022 257.909C628.022 257.909 631.03 262.253 632.235 269.544" stroke="white" stroke-width="5" stroke-miterlimit="10"/>
<path d="M585.682 193.191C585.682 193.191 554.573 125.119 550.858 103.667C546.059 76.0092 556.294 66.1391 562.399 63.9175C568.504 61.6958 609.63 49.4131 609.63 49.4131C617.2 50.623 649.853 57.7797 660.64 65.2618C666.12 69.1037 660.145 193.877 660.145 193.877C662.114 200.687 668.552 217.654 668.552 217.654C668.552 217.654 647.402 226.576 608.128 219.536L600.365 205.898C600.365 205.898 595.432 215.772 593.328 216.476C591.223 217.18 578.797 213.844 573.449 208.236C573.449 208.219 585.701 198.589 585.682 193.191Z" fill="#DBDAFF"/>
<path d="M599.953 100.274C598.685 100.274 597.658 99.1273 597.658 97.7128C597.658 96.2982 598.685 95.1515 599.953 95.1515C601.22 95.1515 602.248 96.2982 602.248 97.7128C602.248 99.1273 601.22 100.274 599.953 100.274Z" stroke="white" stroke-width="5" stroke-miterlimit="10"/>
<path d="M599.953 123.994C598.685 123.994 597.658 122.847 597.658 121.433C597.658 120.018 598.685 118.872 599.953 118.872C601.22 118.872 602.248 120.018 602.248 121.433C602.248 122.847 601.22 123.994 599.953 123.994Z" stroke="white" stroke-width="5" stroke-miterlimit="10"/>
<path d="M600.333 144.958C599.066 144.958 598.038 143.812 598.038 142.397C598.038 140.982 599.066 139.836 600.333 139.836C601.601 139.836 602.628 140.982 602.628 142.397C602.628 143.812 601.601 144.958 600.333 144.958Z" stroke="white" stroke-width="5" stroke-miterlimit="10"/>
<path d="M601.601 163C600.334 163 599.306 161.854 599.306 160.439C599.306 159.025 600.334 157.878 601.601 157.878C602.868 157.878 603.896 159.025 603.896 160.439C603.896 161.854 602.868 163 601.601 163Z" stroke="white" stroke-width="5" stroke-miterlimit="10"/>
<path d="M602.869 184.226C601.601 184.226 600.574 183.08 600.574 181.665C600.574 180.25 601.601 179.104 602.869 179.104C604.136 179.104 605.164 180.25 605.164 181.665C605.164 183.08 604.136 184.226 602.869 184.226Z" stroke="white" stroke-width="5" stroke-miterlimit="10"/>
<path d="M606.673 202.268C605.405 202.268 604.378 201.122 604.378 199.707C604.378 198.293 605.405 197.146 606.673 197.146C607.94 197.146 608.968 198.293 608.968 199.707C608.968 201.122 607.94 202.268 606.673 202.268Z" stroke="white" stroke-width="5" stroke-miterlimit="10"/>
<path d="M610.112 46.2009C610.112 46.2009 602.248 59.177 599.813 66.1993C599.813 66.1993 604.524 66.638 609.614 73.448C609.614 73.448 624.373 59.1593 626.646 53.1135C626.646 53.1135 613.393 47.1773 610.112 46.2009Z" fill="white"/>
<path d="M605.592 56.1028C600.13 66.1993 594.643 80.4171 593.759 90.7931C593.182 97.5536 594.973 172.492 594.973 172.492C595.236 180.08 594.729 201.66 608.445 218.81" stroke="white" stroke-width="5" stroke-miterlimit="10" stroke-linecap="round"/>
<path d="M593.759 90.7931L581.406 69.5353" stroke="white" stroke-width="5" stroke-miterlimit="10"/>
<path d="M655.616 62.74C683.358 72.0405 705.392 132.163 697.065 162.244C694.507 171.481 673.96 172.737 654.081 172.712C627.454 172.68 595.017 172.492 595.017 172.492L594.285 157.015C594.285 157.015 631.429 138.06 655.524 137.593C655.511 137.593 616.449 49.6118 655.616 62.74Z" fill="#DBDAFF"/>
<path d="M595.017 172.492L594.833 157.071C594.833 157.071 631.357 138.64 655.511 137.214C655.511 137.214 647.903 117.619 642.936 98.9156" stroke="white" stroke-width="5" stroke-miterlimit="10"/>
<path d="M594.142 170.652C594.142 170.652 588.624 177.374 583.843 175.909C579.063 174.445 574.6 173.401 572.08 174.66C568.964 176.217 565.769 179.875 563.794 179.68C561.404 179.471 559.072 178.75 556.925 177.558C558.304 174.799 559.807 172.12 561.429 169.531C559.692 170.61 557.35 172.909 556.075 173.755C554.028 175.127 552.76 172.927 552.76 172.927C552.76 172.927 556.427 167.741 557.987 166.428C559.483 165.165 564.85 161.292 567.122 161.062C569.861 160.51 586.598 155.773 594.088 156.816L594.142 170.652Z" fill="#B6732B"/>
<path d="M559.416 177.781C559.416 177.781 565.946 168.286 567.658 167.698C570.673 166.662 574.603 165.282 574.603 165.282" stroke="#A85F2B" stroke-width="3" stroke-miterlimit="10" stroke-linecap="round"/>
<path d="M562.323 178.853C562.323 178.853 568.178 170.957 569.887 170.362C572.901 169.322 576.832 167.946 576.832 167.946" stroke="#A85F2B" stroke-width="3" stroke-miterlimit="10" stroke-linecap="round"/>
<path d="M602.628 153.633L608.876 173.564" stroke="white" stroke-width="5" stroke-miterlimit="10"/>
<path d="M662.323 173.772C635.696 173.741 595.017 172.492 595.017 172.492" stroke="white" stroke-width="5" stroke-miterlimit="10"/>
<path d="M453.261 209.662C451.226 212.064 442.62 223.144 439.019 224.304C435.418 225.465 424.073 222.854 423.169 222.242C422.266 221.63 417.089 216.911 417.089 216.911C417.089 216.911 418.804 213.14 422.542 215.566C426.979 218.446 432.409 215.184 434.682 212.736C435.633 211.725 436.35 208.289 434.793 206.857C433.237 205.424 429.487 209.184 427.953 209.333C425.61 209.574 423.917 207.087 423.917 207.087C423.917 207.087 429.994 201.508 431.154 200.432C432.314 199.357 440.689 195.437 447.403 196.307C454.117 197.178 457.981 204.097 453.261 209.662Z" fill="#B6732B"/>
<path d="M563.265 63.9423C563.265 63.9423 545.491 67.3915 533.107 83.502C523.258 96.3083 501.687 144.265 500.812 145.241C499.937 146.218 454.136 186.094 445.39 194.585C445.39 194.585 452.253 198.122 455.239 212.195C455.239 212.195 513.612 191.811 531.186 171.045C555.964 141.746 580.816 98.4097 563.265 63.9423Z" fill="#DBDAFF"/>
<path d="M452.998 186.802C452.998 186.802 463.775 193.24 465.065 208.657" stroke="white" stroke-width="5" stroke-miterlimit="10"/>
<path d="M552.76 106.851C552.76 106.851 554.687 121.153 558.713 131.26" stroke="white" stroke-width="5" stroke-miterlimit="10"/>
<path d="M439.488 210.044H396.454C390.526 210.044 385.727 215.704 385.727 222.659V267.588C385.727 274.557 380.921 280.203 375 280.203H418.04C423.965 280.203 428.767 274.543 428.767 267.588V223.133C428.73 220.382 429.546 217.7 431.076 215.541C432.606 213.383 434.756 211.879 437.164 211.286L439.494 210.815L439.488 210.044Z" fill="white" stroke="#6562CF" stroke-width="5" stroke-miterlimit="10"/>
<path d="M394.812 225.536H419.27" stroke="#FFB000" stroke-width="7" stroke-linejoin="round"/>
<path d="M394.812 244.589H419.27" stroke="#FFB000" stroke-width="7" stroke-linejoin="round"/>
<path d="M394.812 254.116H419.27" stroke="#FFB000" stroke-width="7" stroke-linejoin="round"/>
<path d="M394.812 263.643H419.27" stroke="#FFB000" stroke-width="7" stroke-linejoin="round"/>
<path d="M394.812 235.062H419.27" stroke="#FFB000" stroke-width="7" stroke-linejoin="round"/>
<path d="M593.968 37.0708C595.09 38.737 596.881 45.9503 608.359 49.4526C608.359 49.4526 596.406 66.8189 593.461 88.6852L580.781 66.7199L593.968 37.0708Z" fill="#A85F2B"/>
<path d="M545.786 23.9843C546.715 27.3451 551.115 27.0656 551.13 27.6812C551.146 28.2967 548.791 29.45 549.327 32.2235C549.837 34.8591 551.768 35.2907 553.495 35.1032C553.498 34.9147 553.513 34.7267 553.54 34.5407C554.731 26.6588 571.348 19.8983 578.55 25.3109C583.083 28.7876 586.418 33.887 588.002 39.7658C588.002 39.7658 589.546 34.3921 592.51 35.5914C593.002 35.7744 593.452 36.0778 593.825 36.4793C593.147 33.0089 591.828 23.252 591.882 20.9454C591.946 18.317 596.761 11.6803 593.039 7.50233C589.318 3.32435 585.019 6.58608 585.019 6.58608C585.019 6.58608 582.988 -0.340662 577.016 0.0131037C571.706 0.36687 570.359 4.2583 570.359 4.2583C570.359 4.2583 568.888 0.915207 566.048 1.54845C565.427 1.70791 564.842 2.00732 564.328 2.42829C563.815 2.84927 563.384 3.38293 563.062 3.99651C563.062 3.99651 559.512 1.42817 556.944 3.55076C556.224 4.10965 555.685 4.91386 555.408 5.84302C555.132 6.77219 555.132 7.77632 555.41 8.70514C555.41 8.70514 550.43 6.72051 547.837 11.1815C546.125 14.1142 548.772 18.225 548.772 18.225C548.772 18.225 544.835 20.62 545.786 23.9843Z" fill="#424D76"/>
<path d="M590.421 47.0924C590.421 47.0924 593.949 55.9365 588.376 62.3043C581.685 69.9598 573.728 72.2558 570.942 72.047C568.156 71.8383 552.487 41.3791 553.508 34.5478C554.7 26.6659 571.316 19.9019 578.518 25.3145C583.052 28.7922 586.387 33.8928 587.971 39.773C587.971 39.773 589.518 34.3993 592.481 35.5985C598.089 37.8662 590.421 47.0924 590.421 47.0924Z" fill="#B6732B"/>
<path d="M583.07 28.18C583.961 30.6564 590.995 44.9026 586.015 52.0522C581.035 59.2018 577.323 48.8117 567.924 52.5227C562.32 54.7302 563.696 60.9706 563.696 60.9706C563.696 60.9706 565.306 64.9116 567.687 73.0553C568.229 74.8984 588.887 70.9327 592 55.9542C593.353 49.4485 589.533 39.306 586.474 33.3132C584.636 29.6977 583.07 28.18 583.07 28.18Z" fill="#424D76"/>
<path d="M847.303 409.374H838.778V474.585H847.303V409.374Z" fill="#F0E1D4" stroke="#D8BAA3" stroke-width="5" stroke-miterlimit="10" stroke-linecap="round"/>
<path d="M834.516 361.128H851.568V406.906C851.566 408.158 851.14 409.358 850.384 410.242C849.627 411.127 848.602 411.623 847.533 411.622H838.542C837.473 411.622 836.447 411.125 835.691 410.239C834.935 409.353 834.51 408.151 834.51 406.899V361.128H834.516Z" fill="white" stroke="#D8BAA3" stroke-width="5" stroke-miterlimit="10" stroke-linecap="round"/>
<path d="M872.357 485.741V500.647H864.214V494.622C864.214 491.662 863.21 488.824 861.424 486.731C859.638 484.638 857.215 483.462 854.689 483.462H831.486C828.96 483.462 826.538 484.638 824.751 486.731C822.965 488.824 821.962 491.662 821.962 494.622V500.647H813.819V485.741C813.819 482.781 814.822 479.943 816.609 477.85C818.395 475.757 820.818 474.581 823.344 474.581H862.835C865.36 474.582 867.782 475.758 869.568 477.851C871.353 479.944 872.357 482.782 872.357 485.741Z" fill="#F0E1D4" stroke="#D8BAA3" stroke-width="5" stroke-miterlimit="10" stroke-linecap="round"/>
<path d="M868.242 514.969C872.914 514.969 876.701 510.533 876.701 505.06C876.701 499.587 872.914 495.15 868.242 495.15C863.571 495.15 859.784 499.587 859.784 505.06C859.784 510.533 863.571 514.969 868.242 514.969Z" fill="white" stroke="#D8BAA3" stroke-width="5" stroke-miterlimit="10" stroke-linecap="round"/>
<path d="M817.553 514.969C822.224 514.969 826.011 510.533 826.011 505.06C826.011 499.587 822.224 495.15 817.553 495.15C812.881 495.15 809.095 499.587 809.095 505.06C809.095 510.533 812.881 514.969 817.553 514.969Z" fill="white" stroke="#D8BAA3" stroke-width="5" stroke-miterlimit="10" stroke-linecap="round"/>
<path d="M862.784 338.253L883.806 265.871H898.836L877.815 338.253H862.784Z" fill="#F0E1D4" stroke="#D8BAA3" stroke-width="5" stroke-miterlimit="10" stroke-linecap="round"/>
<path d="M858.659 338.253L879.68 265.871H894.71L873.689 338.253H858.659Z" fill="white" stroke="#D8BAA3" stroke-width="5" stroke-miterlimit="10" stroke-linecap="round"/>
<path d="M909.676 346.533C909.676 347.941 907.861 349.295 904.578 350.503C894.87 354.108 872.348 356.636 846.113 356.636C821.968 356.636 800.97 354.495 790.207 351.342C789.276 351.071 788.422 350.791 787.646 350.503C784.363 349.284 782.548 347.941 782.548 346.533C782.548 345.338 783.848 344.195 786.238 343.131C795.02 339.223 818.514 336.426 846.113 336.426C881.219 336.426 909.676 340.953 909.676 346.533Z" fill="white" stroke="#D8BAA3" stroke-width="5" stroke-miterlimit="10" stroke-linecap="round"/>
<path d="M909.675 346.533V354.474C909.675 360.054 881.218 364.577 846.113 364.577C821.967 364.577 800.969 362.436 790.207 359.284C785.32 357.854 782.544 356.218 782.544 354.474V346.533C782.544 347.941 784.36 349.295 787.643 350.503C788.417 350.791 789.271 351.071 790.204 351.342C800.967 354.495 821.964 356.636 846.11 356.636C872.339 356.636 894.866 354.108 904.574 350.503C907.86 349.284 909.675 347.941 909.675 346.533Z" fill="#F0E1D4" stroke="#D8BAA3" stroke-width="5" stroke-miterlimit="10" stroke-linecap="round"/>
<path d="M940.584 220.258H860.35C858.302 220.258 856.436 221.94 855.561 224.578L834.121 298.258C833.237 300.889 834.599 303.921 836.644 303.921H915.861C918.514 303.921 920.948 301.735 922.083 298.303L943.107 225.921C943.979 223.287 942.63 220.258 940.584 220.258Z" fill="white" stroke="#D8BAA3" stroke-width="5" stroke-miterlimit="10" stroke-linecap="round"/>
<path d="M772.978 288.673L759.749 291.09C758.081 295.831 754.149 301.21 753.309 301.732C752.399 302.284 747.666 305.274 747.666 305.274C747.666 305.274 746.764 303.451 747.527 301.856C748.028 300.82 751.126 299.042 750.769 297.588C750.412 296.135 748.562 296.304 747.742 296.732C745.78 297.768 742.255 300.351 742.632 304.201C742.956 307.45 740.407 307.757 740.407 307.757C740.407 307.757 739.069 303.614 738.978 302.83C738.886 302.046 739.432 294.281 741.041 292.002C742.326 290.196 748.588 286.664 752.083 284.837L769.766 275.456L772.978 288.673Z" fill="#FFCFC9"/>
<path d="M829.995 217.434C829.995 217.434 832.763 262.77 824.101 274.33C815.44 285.89 786.131 292.637 772.663 289.046L769.309 275.321C782.612 264.786 802.022 250.985 802.022 250.985C802.022 250.985 808.482 187.463 818.796 179.542C829.111 171.622 829.648 208.467 829.995 217.434Z" fill="#FFB000"/>
<path d="M769.424 275.68C771.233 279.711 772.277 284.153 772.483 288.701" stroke="white" stroke-width="4" stroke-miterlimit="10" stroke-linecap="round"/>
<path d="M770.37 277.997L777.873 273.201" stroke="white" stroke-width="4" stroke-miterlimit="10" stroke-linecap="round"/>
<path d="M771.154 280.455L775.916 278.701" stroke="white" stroke-width="4" stroke-miterlimit="10" stroke-linecap="round"/>
<path d="M771.95 283.925L781.457 282.196" stroke="white" stroke-width="4" stroke-miterlimit="10" stroke-linecap="round"/>
<path d="M772.483 286.646H777.154" stroke="white" stroke-width="4" stroke-miterlimit="10" stroke-linecap="round"/>
<path d="M805.481 516.005H769.465C769.465 516.005 768.973 509.238 773.591 508.298C777.499 507.501 781.212 502.684 781.212 502.684C781.212 502.684 790.245 508.229 795.653 499.3C801.061 490.371 800.33 481 800.33 481C802.045 483.438 806.928 489.342 807.129 498.561C807.208 504.434 806.654 510.295 805.481 516.005Z" fill="#E69900"/>
<path d="M766.144 332.158C760.126 333.118 747.067 345.756 754.432 370.678C761.797 395.601 790.325 473.511 790.054 480.731C789.691 490.371 781.212 502.684 781.212 502.684C781.212 502.684 790.245 508.229 795.653 499.3C801.061 490.371 800.327 481 800.327 481C800.327 481 804.983 420.921 796.92 371.783C793.219 349.288 776.963 330.428 766.144 332.158Z" fill="#FAB6AD"/>
<path d="M833.455 516.005H797.436C797.436 516.005 796.944 509.238 801.562 508.298C805.467 507.501 809.183 502.684 809.183 502.684C809.183 502.684 818.216 508.229 823.624 499.3C829.032 490.371 828.298 481 828.298 481C830.016 483.438 834.896 489.342 835.1 498.561C835.179 504.434 834.627 510.295 833.455 516.005Z" fill="#FFB000"/>
<path d="M794.118 331.941C789.249 336.191 784.301 345.752 791.669 370.678C799.036 395.604 818.516 473.528 818.024 480.731C817.532 487.934 809.183 502.684 809.183 502.684C809.183 502.684 818.216 508.229 823.624 499.3C829.032 490.371 828.298 481 828.298 481C828.298 481 838.719 401.93 834.74 371.783C831.764 349.143 807.639 320.122 794.118 331.941Z" fill="#FFCFC9"/>
<path d="M882.58 266.54C882.58 266.54 894.153 293.473 898.547 314.276C903.342 336.982 891.215 352.047 864.066 352.316C842.29 352.534 846.531 368.955 846.531 368.955C846.531 368.955 836.32 375.495 825.312 368.955C813.695 362.05 807.813 365.63 799.499 369.387C789.031 374.141 779.6 364.984 771.49 364.408C759.318 363.545 756.009 373.706 743.269 364.843C743.269 364.843 738.674 327.045 757.851 312.57C777.027 298.096 838.916 282.555 836.479 267.839L882.58 266.54Z" fill="#3F4D90"/>
<path d="M818.796 179.542C826.208 173.548 844.386 166.311 851.447 158.245L880.747 156.591C890.272 165.275 908.099 176.88 912.157 183.869L892.397 229.17C892.397 229.17 883.75 261.002 882.515 267.41C881.28 273.819 850.392 275.072 835.568 268.654C835.568 268.654 831.148 240.34 829.745 238.679C828.342 237.019 820.744 232.074 822.162 219.865L818.796 179.542Z" fill="#FFB000"/>
<path d="M835.863 268.308C835.863 268.308 830.853 240.34 829.45 238.679C828.047 237.019 820.753 232.119 821.867 219.865C822.427 213.705 826.753 203.07 826.753 203.07" stroke="white" stroke-width="4" stroke-miterlimit="10" stroke-linecap="round"/>
<path d="M842.777 292.499C842.621 293.559 841.869 296.988 838.845 298.69C835.309 300.672 834.737 300.938 831.643 302.93C829.176 304.522 827.47 308.202 826.379 309.739C823.933 313.192 822.029 302.754 822.666 300.613C825.513 295.344 831.454 288.528 836.084 285.251C837.455 284.366 838.874 283.588 840.334 282.924C844.115 281.198 850.725 278.435 858.04 275.421L861.281 288.666L842.777 292.499Z" fill="#FFCFC9"/>
<path d="M858.016 275.335C871.319 264.8 893.691 254.107 893.691 254.107L891.966 212.786C891.554 202.935 894.648 193.257 900.675 186.369C906.056 180.219 912.463 177.716 916.044 193.62C916.044 193.62 927.897 253.409 915.749 274.34C908.382 287.054 874.823 292.64 861.355 289.07L858.016 275.335Z" fill="#FFB000"/>
<path d="M858.016 275.335C871.319 264.8 893.69 254.107 893.69 254.107L892.397 229.17" stroke="white" stroke-width="4" stroke-miterlimit="10" stroke-linecap="round"/>
<path d="M857.721 275.68C859.529 279.712 860.573 284.153 860.78 288.701" stroke="white" stroke-width="4" stroke-miterlimit="10" stroke-linecap="round"/>
<path d="M858.667 277.997L866.168 273.201" stroke="white" stroke-width="4" stroke-miterlimit="10" stroke-linecap="round"/>
<path d="M859.448 280.455L864.214 278.701" stroke="white" stroke-width="4" stroke-miterlimit="10" stroke-linecap="round"/>
<path d="M860.247 283.925L869.754 282.196" stroke="white" stroke-width="4" stroke-miterlimit="10" stroke-linecap="round"/>
<path d="M860.78 286.646H865.452" stroke="white" stroke-width="4" stroke-miterlimit="10" stroke-linecap="round"/>
<path d="M900.985 132.88C900.985 132.88 862.083 146.671 828.869 144.809C828.869 144.809 817.815 128.678 824.399 121.575C830.346 115.163 838.274 111.376 834.979 106.276C831.684 101.176 828.513 93.6624 837.808 87.5958C847.103 81.5291 863.807 72.089 873.986 77.731C881.498 81.9089 877.34 93.6141 881.864 93.7971C887.101 94.0077 893.767 98.0855 891.987 108.354C889.691 121.582 904.279 111.099 900.985 132.88Z" fill="#722D54"/>
<path d="M824.744 144.81C824.744 144.81 811.868 129.493 821.154 120.202C827.299 114.052 835.029 111.383 831.734 106.283C828.439 101.183 825.268 93.6701 834.563 87.6034C843.858 81.5368 860.78 74.6242 870.745 77.0411" stroke="#722D54" stroke-width="3" stroke-miterlimit="10"/>
<path d="M873.692 120.202C873.692 120.202 872.103 145.014 880.765 156.595C880.765 156.595 869.81 176.031 851.102 176.856C832.394 177.681 851.465 158.249 851.465 158.249C851.465 158.249 856.053 150.998 855.343 132.608L873.692 120.202Z" fill="#FFCFC9"/>
<path d="M873.571 120.281C870.963 128.327 864.647 144.134 854.886 145.625C855.38 141.311 855.532 136.952 855.34 132.605L873.571 120.281Z" fill="#FAB6AD"/>
<path d="M873.692 120.202C873.692 120.202 868.042 137.017 853.923 137.017C851.453 137.017 841.993 125.944 842.691 108.013C843.39 90.0825 859.923 89.5853 859.923 89.5853C859.923 89.5853 858.744 108.334 872.81 110.955C872.81 110.955 876.394 107.233 877.82 110.541C879.247 113.848 873.692 120.202 873.692 120.202Z" fill="#FFCFC9"/>
<path d="M859.923 89.2504C859.923 89.2504 854.618 108.345 868.685 110.965" stroke="#722D54" stroke-width="3" stroke-miterlimit="10"/>
<path d="M877.337 127.094C879.616 127.094 881.463 124.929 881.463 122.26C881.463 119.59 879.616 117.426 877.337 117.426C875.058 117.426 873.211 119.59 873.211 122.26C873.211 124.929 875.058 127.094 877.337 127.094Z" stroke="white" stroke-width="4" stroke-miterlimit="10"/>
<path d="M880.423 155.093C880.717 155.055 881.375 156.533 881.13 156.726C877.337 159.706 864.747 164.322 856.419 161.277C845.438 157.258 852.546 153.632 853.472 154.243C856.375 156.111 868.06 156.591 880.423 155.093Z" fill="white" stroke="#D8BAA3" stroke-width="5" stroke-miterlimit="10" stroke-linecap="round"/>
<path d="M884.932 153.601C884.932 153.601 889.058 146.35 894.916 147.334C894.916 147.334 892.025 154.83 884.932 153.601Z" fill="white" stroke="#D8BAA3" stroke-width="5" stroke-miterlimit="10" stroke-linecap="round"/>
<path d="M885.365 154.35C885.365 154.35 896.216 154.299 900.301 163.59C900.301 163.59 890.278 165.607 885.365 154.35Z" fill="white" stroke="#D8BAA3" stroke-width="5" stroke-miterlimit="10" stroke-linecap="round"/>
<path d="M882.937 157.306C884.157 157.306 885.147 156.147 885.147 154.716C885.147 153.286 884.157 152.127 882.937 152.127C881.716 152.127 880.726 153.286 880.726 154.716C880.726 156.147 881.716 157.306 882.937 157.306Z" fill="white" stroke="#D8BAA3" stroke-width="5" stroke-miterlimit="10" stroke-linecap="round"/>
<path d="M822.678 303.075H742.467C741.464 303.073 740.482 302.738 739.635 302.108C738.787 301.479 738.11 300.581 737.681 299.519L713.267 238.9C713.067 238.403 712.976 237.854 713.005 237.305C713.034 236.755 713.181 236.223 713.433 235.759C713.684 235.294 714.032 234.911 714.444 234.646C714.855 234.381 715.317 234.242 715.787 234.242H795.008C796.312 234.242 797.589 234.676 798.691 235.494C799.792 236.312 800.673 237.48 801.229 238.862L825.2 298.414C825.401 298.912 825.491 299.461 825.462 300.011C825.433 300.56 825.286 301.093 825.034 301.558C824.782 302.023 824.434 302.406 824.022 302.671C823.61 302.936 823.148 303.075 822.678 303.075Z" fill="white" stroke="#FFB000" stroke-width="6" stroke-miterlimit="10"/>
<path d="M867.683 303.075H739.747C738.285 303.075 737.1 304.463 737.1 306.176V306.859C737.1 308.572 738.285 309.96 739.747 309.96H867.683C869.144 309.96 870.329 308.572 870.329 306.859V306.176C870.329 304.463 869.144 303.075 867.683 303.075Z" fill="white" stroke="#FFB000" stroke-width="6" stroke-miterlimit="10"/>
</svg>
