<svg width="949" height="402" viewBox="0 0 949 402" fill="none" xmlns="http://www.w3.org/2000/svg">
<path d="M438.743 241.194H533.591C537.072 241.194 540.41 242.455 542.872 244.698C545.335 246.942 546.72 249.986 546.723 253.161V253.233H425.611V253.161C425.615 249.986 427 246.942 429.462 244.698C431.925 242.455 435.263 241.194 438.743 241.194Z" fill="white" stroke="#6562CF" stroke-width="5" stroke-miterlimit="10"/>
<path d="M451.019 253.776L521.315 376.02" stroke="#6562CF" stroke-width="6" stroke-miterlimit="10" stroke-linecap="round"/>
<path d="M521.315 253.776L451.019 376.02" stroke="#6562CF" stroke-width="6" stroke-miterlimit="10" stroke-linecap="round"/>
<path d="M293.33 374.407C293.33 374.407 313.991 374.407 323.706 374.353C331.877 374.305 347.969 375.836 348.219 372.269C348.726 365.092 343.479 361.105 344.13 356.577C337.667 356.751 331.255 355.472 325.461 352.853C323.354 354.73 311.611 364.846 301.965 365.882C291.326 367.026 293.33 374.407 293.33 374.407Z" fill="#DBDAFF"/>
<path d="M293 375.007C293 375.007 338.681 375.007 348.396 374.954" stroke="#6562CF" stroke-width="6" stroke-miterlimit="10" stroke-linecap="round"/>
<path d="M318.757 361.666C318.757 361.666 312.858 355.46 310.748 361.24C309.075 365.819 312.236 366.849 313.111 364.924C313.612 363.819 308.502 360.807 306.563 362.903C305.477 364.081 305.651 365.195 305.651 365.195" stroke="#6562CF" stroke-width="4" stroke-miterlimit="10" stroke-linecap="round"/>
<path d="M350.94 230.408C358.348 210.728 458.144 199.93 458.144 199.93L489.731 200.705C491.308 205.461 494.149 237.375 471.022 249.014C446.48 261.364 390.965 245.332 390.965 245.332C390.965 245.332 394.218 306.943 346.763 357.564L315.798 354.562C329.055 306.973 343.777 249.398 350.94 230.408Z" fill="#3C4564"/>
<path d="M369.706 374.407C369.706 374.407 390.368 374.407 400.082 374.353C408.253 374.305 424.345 375.836 424.595 372.269C425.102 365.092 419.855 361.105 420.506 356.577C414.043 356.751 407.631 355.472 401.837 352.853C399.73 354.73 387.987 364.846 378.342 365.882C367.702 367.026 369.706 374.407 369.706 374.407Z" fill="#DBDAFF"/>
<path d="M369.376 375.007C369.376 375.007 415.057 375.007 424.772 374.954" stroke="#6562CF" stroke-width="6" stroke-miterlimit="10" stroke-linecap="round"/>
<path d="M395.133 361.666C395.133 361.666 389.234 355.46 387.124 361.24C385.451 365.819 388.612 366.849 389.487 364.924C389.988 363.819 384.878 360.807 382.939 362.903C381.853 364.08 382.028 365.195 382.028 365.195" stroke="#6562CF" stroke-width="4" stroke-miterlimit="10" stroke-linecap="round"/>
<path d="M392.816 230.225C397.401 216.737 471.022 200.311 471.022 200.311L533.621 201.6C535.194 206.356 541.229 234.366 518.102 246.005C493.56 258.355 430.016 252.773 430.016 252.773C430.016 252.773 453.442 290.84 423.886 357.571L394.103 354.568C399.281 319.186 386.297 249.401 392.816 230.225Z" fill="#424D76"/>
<path d="M462.143 190.817C462.143 190.817 452.396 159.173 444.383 125.242C444.383 125.242 424.541 119.086 413.108 107.447C413.108 107.447 431.458 77.8036 445.581 73.3204C457.739 69.4618 475.252 65.7413 475.252 65.7413L514.678 63.0689C514.678 63.0689 543.527 70.2365 553.795 77.6414C565.728 86.2444 571.664 114.453 571.664 114.453C571.664 114.453 557.818 115.38 537.581 126.356L532.827 190.817C534.194 199.071 537.469 210.13 537.469 210.13C537.469 210.13 497.744 218.649 446.006 200.642C446.006 200.642 464.056 197.191 462.143 190.817Z" fill="#DBDAFF"/>
<path d="M413.161 107.663L400.137 125.638C400.137 125.638 364.405 82.7942 360.616 77.8576L348.86 81.4309C348.86 81.4309 376.704 159.57 399.311 159.57C417.286 159.57 443.974 125.242 443.974 125.242C443.974 125.242 420.383 115.137 413.161 107.663Z" fill="#E49647"/>
<path d="M360.616 77.8936C360.616 77.8936 360.573 66.9214 357.903 63.267C355.233 59.6127 347.77 46.4514 345.005 47.8177C343.731 48.4483 348.392 59.4085 348.392 59.4085C348.392 59.4085 345.821 58.2884 343.958 60.1171C342.095 61.9458 341.877 60.4174 339.316 61.4384C336.755 62.4593 337.756 64.339 334.638 64.5432C332.393 64.6874 332.561 67.1737 333.98 69.648C335.873 72.9991 346.206 82.3798 349.423 81.4309C352.639 80.482 360.616 77.8936 360.616 77.8936Z" fill="#E49647"/>
<path d="M334.431 68.9724C334.783 69.663 337.232 74.7377 340.422 73.6567C343.612 72.5757 337.772 64.9756 337.772 64.9756C337.772 64.9756 342.523 72.9781 345.637 71.762C348.751 70.5458 342.891 62.8947 342.891 62.8947" stroke="#CB884B" stroke-width="3" stroke-miterlimit="10"/>
<path d="M357.666 64.2339C356.606 62.5974 355.418 61.8107 352.3 62.4863C349.183 63.1619 344.399 64.6754 344.399 64.6754C344.399 64.6754 345.002 68.4349 348.85 67.8343C351.447 67.4289 351.447 67.4289 351.52 67.9694C351.592 68.5099 351.935 71.8971 353.199 74.0621" stroke="#CB884B" stroke-width="3" stroke-miterlimit="10"/>
<path d="M408.091 136.49H460.326C467.519 136.49 474.304 140.994 475.47 146.516L483.065 182.214C484.24 187.751 491.028 192.24 498.208 192.24H445.989C438.796 192.24 432.014 187.736 430.846 182.214L423.323 146.892C422.306 142.087 417.174 138.484 411.126 137.478L408.223 137.103L408.091 136.49Z" fill="white" stroke="#6562CF" stroke-width="5" stroke-miterlimit="10"/>
<path d="M574.044 169.878C566.341 179.772 511.594 188.339 499.591 190.102C499.035 190.277 498.462 190.399 497.879 190.468C495.314 190.769 482.014 191.498 479.368 190.723C476.25 189.808 470.337 184.664 470.018 183.868C469.699 183.072 468.115 176.385 468.115 176.385C468.115 176.385 472.25 175.83 474.522 179.859C476.566 183.493 481.004 183.099 483.739 182.883C484.878 182.793 487.061 181.247 486.702 179.673C486.343 178.1 484.23 178.637 483.114 177.959L482.311 174.337L487.387 174.286C488.628 174.271 495.479 176.727 499.722 180.238C511.383 174.136 537.887 160.584 551.326 156.318L537.565 126.344C537.565 126.344 550.14 116.489 571.473 114.333C571.509 114.333 581.945 159.726 574.044 169.878Z" fill="#E49647"/>
<path d="M503.005 37.1518C503.005 37.1518 500.117 55.715 515.314 63.2761C515.314 63.2761 496.69 76.14 482.261 76.9628C467.832 77.7855 474.031 66.48 474.031 66.48C474.031 66.48 477.583 60.0871 476.461 44.3885L503.005 37.1518Z" fill="#E49647"/>
<path d="M476.451 44.3915L502.412 37.3109C502.066 38.494 500.562 54.9193 479.674 59.952C478.426 60.2522 477.159 59.9129 476.003 59.4625C476.569 55.9372 476.925 50.9856 476.451 44.3915Z" fill="#D48845"/>
<path d="M502.837 37.2599C502.837 37.2599 496.582 50.268 479.677 52.1477C464.603 53.8263 457.192 15.4867 479.45 11.8203C503.91 7.79351 501 31.6777 501 31.6777C501 31.6777 504.588 29.2755 506.267 31.1762C507.946 33.077 502.837 37.2599 502.837 37.2599Z" fill="#E49647"/>
<path d="M503.14 35.5302L501.135 31.9088C496.45 30.4885 497.02 24.6481 498.718 21.4831C497.609 22.0837 495.495 22.6302 491.821 22.3449C489.78 22.1858 493.718 19.0148 492.095 18.7656C490.472 18.5164 487.087 21.8525 482.08 22.2218C477.073 22.5911 482.459 19.1169 482.768 17.2882C483.038 15.6847 479.716 17.7957 477.982 18.7896C471.536 22.5221 466.091 21.6182 465.633 27.1974C465.633 27.1974 460.464 19.8586 460.464 16.3874C460.464 7.62224 477.889 -0.623424 485.102 0.0371897C491.426 0.625737 496.121 5.58334 497.178 6.79647C497.705 6.08188 498.435 5.51192 499.291 5.14794C500.908 4.39124 502.524 4.31617 502.912 4.98279C503.301 5.64941 502.28 6.80548 500.664 7.56218C500.565 7.60722 500.47 7.65227 500.371 7.6913C502.81 8.32489 506.27 9.49298 508.805 11.5259C517.269 18.2701 503.14 35.5302 503.14 35.5302Z" fill="#FFB000"/>
<path d="M501 32.044C501 32.044 503.749 29.2995 506.267 31.1702C508.785 33.041 502.027 37.9986 502.027 37.9986L501 32.044Z" fill="#E49647"/>
<path d="M891.086 399.056L902.603 265.72C902.821 263.721 903.747 261.875 905.203 260.535C906.66 259.195 908.545 258.454 910.499 258.454C912.453 258.454 914.338 259.195 915.794 260.535C917.251 261.875 918.176 263.721 918.394 265.72L932.988 399.056" stroke="#FFB000" stroke-width="5" stroke-miterlimit="10" stroke-linecap="round"/>
<path d="M811.392 399.056L822.909 265.72C823.127 263.721 824.053 261.875 825.509 260.535C826.966 259.195 828.851 258.454 830.805 258.454C832.759 258.454 834.644 259.195 836.1 260.535C837.557 261.875 838.483 263.721 838.7 265.72L853.295 399.056" stroke="#FFB000" stroke-width="5" stroke-miterlimit="10" stroke-linecap="round"/>
<path d="M937.019 250.182C937.019 256.221 907.308 261.118 870.655 261.118C834.002 261.118 804.287 256.218 804.287 250.182C804.287 249.146 805.158 248.145 806.789 247.198C814.672 242.609 840.282 239.245 870.655 239.245C901.028 239.245 926.634 242.599 934.518 247.198C936.149 248.145 937.019 249.146 937.019 250.182Z" fill="#DBDAFF"/>
<path d="M934.518 247.198C927.499 252.535 901.569 256.494 870.655 256.494C839.741 256.494 813.805 252.535 806.789 247.198C814.672 242.609 840.282 239.245 870.655 239.245C901.028 239.245 926.635 242.599 934.518 247.198Z" fill="white"/>
<path d="M870.652 261.118C907.304 261.118 937.016 256.221 937.016 250.182C937.016 244.142 907.304 239.245 870.652 239.245C834 239.245 804.287 244.142 804.287 250.182C804.287 256.221 834 261.118 870.652 261.118Z" stroke="#6562CF" stroke-width="5" stroke-miterlimit="10"/>
<path d="M855.26 84.4513C855.26 84.4513 853.74 122.273 850.574 129.216C847.408 136.158 828.666 168.121 821.281 167.38C807.305 165.955 787.296 98.5514 784.85 90.1331C783.653 88.122 782.388 86.8234 780.323 85.8385C770.339 81.0276 768.591 77.0845 766.502 73.5721L765 63.2061C769.56 60.4538 773.256 68.15 774.483 69.9742C777.745 74.82 781.893 73.6545 783.373 73.4581C785.551 73.1604 782.28 70.4715 781.028 68.036C779.222 64.5236 781.566 62.4998 781.566 62.4998C782.016 64.3494 789.567 72.7898 791.976 75.6909C794.191 78.3545 793.982 83.9033 793.933 84.7996C796.948 89.525 820.226 130.565 820.226 130.565C820.226 130.565 833.352 98.1587 838.688 92.1347C842.565 87.7768 851.565 85.6864 855.26 84.4513Z" fill="#FFD1CB"/>
<path d="M771.388 73.6576C771.388 73.6576 770.745 69.9901 768.684 68.0138C768.684 68.0138 768.013 63.944 765.342 63.2631" stroke="#EEB9AF" stroke-width="3" stroke-miterlimit="10" stroke-linecap="round"/>
<path d="M773.447 72.8025C773.447 72.8025 772.631 69.1856 770.478 67.3012C770.478 67.3012 768.262 61.7112 765.373 63.2472" stroke="#EEB9AF" stroke-width="3" stroke-miterlimit="10" stroke-linecap="round"/>
<path d="M827.749 400.006H824.082L824.266 389.555L819.749 400.006H791.912C791.912 400.006 791.423 394.09 796.013 393.27C799.9 392.573 803.595 388.361 803.595 388.361L822.617 369.421C824.325 371.553 829.183 376.706 829.386 384.773C829.465 389.901 828.915 395.019 827.749 400.006Z" fill="#FFB000"/>
<path d="M786.149 223.451C780.161 224.29 770.859 235.337 778.189 257.124C785.518 278.911 812.669 362.853 812.398 369.162C812.038 377.589 803.595 388.355 803.595 388.355C803.595 388.355 812.583 393.2 817.965 385.393C823.346 377.586 822.617 369.415 822.617 369.415C822.617 369.415 824.786 301.055 816.771 258.103C813.088 238.425 796.912 221.94 786.149 223.451Z" fill="#FFD1CB"/>
<path d="M819.3 276.006C816.925 276.082 814.494 276.082 812.029 275.991C798.992 275.512 788.967 272.371 782.25 269.393C781.635 267.538 781.072 265.796 780.536 264.184C787.207 266.768 797.832 269.77 812.029 270.29C813.972 270.364 815.887 270.398 817.774 270.394C818.266 272.171 818.777 274.046 819.3 276.006Z" fill="#F3C2B9"/>
<path d="M855.584 400.006H851.916L852.098 389.574L846.042 400.006H819.131C819.131 400.006 818.642 394.09 823.232 393.27C827.119 392.573 831.43 388.361 831.43 388.361L850.451 369.421C852.159 371.553 857.018 376.706 857.221 384.773C857.297 389.901 856.747 395.019 855.584 400.006Z" fill="#FFC440"/>
<path d="M816.442 223.894C811.598 227.609 806.678 235.971 814.005 257.757C821.331 279.544 840.722 362.865 840.233 369.162C839.744 375.458 831.43 388.355 831.43 388.355C831.43 388.355 840.417 393.2 845.799 385.393C851.181 377.586 850.451 369.415 850.451 369.415C850.451 369.415 863.889 306.763 856.267 265.086C852.098 242.203 829.897 213.569 816.442 223.894Z" fill="#FFD1CB"/>
<path d="M856.907 268.902C851.307 270.898 836.79 275.439 819.411 276.003H819.3C818.777 274.043 818.266 272.168 817.762 270.391C830.766 270.354 843.73 268.909 856.439 266.077C856.618 267.012 856.765 267.952 856.907 268.902Z" fill="#F3C2B9"/>
<path d="M772.308 260.259C772.308 260.259 767.431 231.647 786.512 218.995C805.592 206.342 861.31 195.925 858.885 183.057L907.693 181.923C907.693 181.923 918.73 198.484 920.517 216.052C922.591 236.389 918.124 251.759 877.747 251.673C856.079 251.626 859.07 265.434 859.07 265.434C859.07 265.434 837.756 271.237 812.026 270.29C786.296 269.343 772.308 260.259 772.308 260.259Z" fill="#424D76"/>
<path d="M864.695 80.714C861.79 81.3918 855.261 84.4481 855.261 84.4481C855.261 84.4481 846.338 119.287 844.184 123.971C842.03 128.655 840.624 136.193 849.722 142.917L858.953 183.662H907.708C907.708 183.662 911.468 141.083 914.043 126.21C916.619 111.337 913.4 82.8867 913.4 82.8867L895.345 80.714H864.695Z" fill="#FFB000"/>
<path d="M948.746 173.34C946.592 186.614 872.557 183.944 867.772 183.757C866.627 184.976 862.593 188.926 859.156 188.153C855.101 187.235 851.667 184.745 849.171 185.955C846.676 187.165 843.814 189.686 842.134 189.566C840.136 189.443 838.168 188.994 836.307 188.235C837.49 186.486 838.766 184.805 840.128 183.2C838.657 183.877 836.667 185.318 835.587 185.851C835.128 186.101 834.601 186.185 834.09 186.09C833.579 185.996 833.113 185.727 832.768 185.328C832.768 185.328 836.46 181.911 837.802 181.087C839.073 180.295 843.033 178.357 844.959 178.215C847.285 177.866 861.095 175.047 867.452 175.716V175.776C870.24 175.006 921.268 160.96 924.862 160.165C924.862 160.165 912.194 117.383 910.48 110.324C908.766 103.264 908.188 82.3799 913.4 82.8867C916.785 83.2192 924.478 83.9699 928.961 94.5766C932.155 102.114 951.423 156.957 948.746 173.34Z" fill="#FFD1CB"/>
<path d="M838.42 188.372C838.42 188.372 843.959 182.414 845.402 182.037C847.959 181.385 851.298 180.52 851.298 180.52" stroke="#EEB9AF" stroke-width="3" stroke-miterlimit="10" stroke-linecap="round"/>
<path d="M841.07 188.736C841.07 188.736 845.851 184.09 847.304 183.719C849.861 183.067 853.199 182.205 853.199 182.205" stroke="#EEB9AF" stroke-width="3" stroke-miterlimit="10" stroke-linecap="round"/>
<path d="M870.895 60.0706C870.895 61.5623 873.929 71.3424 864.695 80.714C864.695 80.714 877.492 85.6041 895.332 80.714C895.332 80.714 890.185 60.2511 890.308 54.1512L870.895 60.0706Z" fill="#FFD1CB"/>
<path d="M888.458 58.7024C887.535 68.5205 877.498 76.3022 867.96 76.6728C873.123 68.7042 870.895 61.3501 870.895 60.0706L888.145 54.7498C888.32 56.289 888.541 57.8283 888.458 58.7024Z" fill="#F3C2B9"/>
<path d="M859.867 41.2199C858.765 39.8897 858.089 31.2941 862.652 27.2307C871.323 19.5028 887.344 16.2248 896.948 21.7642C906.209 27.0945 909.899 34.1477 908.41 47.7981C906.988 60.8562 903.92 63.4976 911.794 73.1542C918.871 81.8354 921.065 94.0859 916.77 104.363C906.293 129.431 926.616 128.899 926.616 141.558H895.126C895.126 141.558 873.135 121.957 883.88 97.5856C893.495 75.783 895.169 68.3085 888.289 56.4127C884.674 50.1481 859.867 41.2199 859.867 41.2199Z" fill="#424D76"/>
<path d="M894.422 20.9595C902.523 23.6738 912.834 33.3462 911.345 46.9935C909.923 60.0516 906.856 62.6961 914.714 72.3496C921.791 81.0307 923.985 93.2844 919.69 103.559C909.228 128.63 929.536 128.098 929.536 140.754" stroke="#424D76" stroke-width="3" stroke-miterlimit="10"/>
<path d="M888.215 50.0149C888.215 50.0149 893.138 49.3624 893.462 51.2026C894.108 54.943 888.677 56.403 888.677 56.403C888.677 56.403 887.692 59.1299 886.477 61.8695C885.76 63.4879 874.886 68.8024 869.966 68.2703C865.046 67.7382 860.326 54.5661 860.267 42.8223C860.218 34.2932 862.919 29.837 868.615 29.837C876.554 29.837 880.264 35.8926 885.701 34.1633C885.692 34.1602 882.132 42.6861 888.215 50.0149Z" fill="#FFD1CB"/>
<path d="M861.446 53.7933C864.642 53.7933 867.233 51.1261 867.233 47.8359C867.233 44.5457 864.642 41.8785 861.446 41.8785C858.249 41.8785 855.658 44.5457 855.658 47.8359C855.658 51.1261 858.249 53.7933 861.446 53.7933Z" stroke="#FFB000" stroke-width="4" stroke-miterlimit="10"/>
<path d="M875.88 53.7933C879.076 53.7933 881.667 51.1261 881.667 47.8359C881.667 44.5457 879.076 41.8785 875.88 41.8785C872.683 41.8785 870.092 44.5457 870.092 47.8359C870.092 51.1261 872.683 53.7933 875.88 53.7933Z" stroke="#FFB000" stroke-width="4" stroke-miterlimit="10"/>
<path d="M867.23 47.8359H870.092" stroke="#FFB000" stroke-width="4" stroke-miterlimit="10"/>
<path d="M881.667 47.8359H893.769" stroke="#FFB000" stroke-width="4" stroke-miterlimit="10"/>
<path d="M170.375 249.989V392.753" stroke="#FFB000" stroke-width="6" stroke-miterlimit="10"/>
<path d="M233.399 249.989V392.753" stroke="#FFB000" stroke-width="6" stroke-miterlimit="10"/>
<path d="M169.765 369.802H232.627" stroke="#FFB000" stroke-width="6" stroke-miterlimit="10"/>
<path d="M243.413 230.855H159.751C156.941 230.855 154.663 233.135 154.663 235.947V244.897C154.663 247.709 156.941 249.989 159.751 249.989H243.413C246.223 249.989 248.501 247.709 248.501 244.897V235.947C248.501 233.135 246.223 230.855 243.413 230.855Z" fill="white" stroke="#6562CF" stroke-width="6" stroke-miterlimit="10"/>
<path d="M231.861 93.0181C237.047 91.5619 244.219 75.4447 236.361 66.7163C228.504 57.9879 211.855 57.7242 197.721 59.8427C184.656 61.8018 167.495 69.3867 174.035 85.746C183.336 109.006 231.861 93.0181 231.861 93.0181Z" fill="#FFB819"/>
<path d="M224.044 82.0424C228.945 81.0062 237.366 72.8449 229.965 66.6335C222.564 60.4221 211.166 59.8182 199.026 61.8937C186.886 63.9693 174.305 68.2645 180.079 80.0404C185.854 91.8163 224.044 82.0424 224.044 82.0424Z" fill="#F49C00"/>
<path d="M252.971 391.333C249.8 393.286 230.409 393.173 226.749 391.333C223.088 389.494 223.946 383.276 223.336 379.125C222.727 374.974 214.067 367.168 213.58 364.48C213.092 361.791 222.481 355.935 224.111 353.55C222.769 357.511 236.202 358.379 237.283 355.813C236.756 365.212 243.658 380.155 249.319 381.504C252.882 382.357 256.141 389.38 252.971 391.333Z" fill="#DBDAFF"/>
<path d="M240.175 345.533L237.277 355.812C236.202 358.379 222.769 357.511 224.105 353.55C225.441 349.589 224.935 342.706 224.935 342.706L240.175 345.533Z" fill="#C36F0B"/>
<path d="M213.583 364.492C214.073 367.178 222.73 374.989 223.343 379.14C223.955 383.292 223.097 389.515 226.755 391.346C230.413 393.176 249.806 393.299 252.977 391.346" stroke="#6562CF" stroke-width="7" stroke-miterlimit="10" stroke-linecap="round"/>
<path d="M238.031 381.492C238.031 381.492 244.464 378.616 250.866 380.879" stroke="white" stroke-width="6" stroke-miterlimit="10" stroke-linecap="round"/>
<path d="M164.61 391.333C167.78 393.286 185.027 393.173 188.687 391.333C192.348 389.494 194.553 383.276 195.163 379.125C195.773 374.974 201.676 365.635 202.163 362.947C202.65 360.258 193.261 354.402 191.631 352.017C192.973 355.978 179.846 358.379 178.765 355.813C179.292 365.212 173.919 380.155 168.261 381.504C164.695 382.357 161.439 389.38 164.61 391.333Z" fill="#DBDAFF"/>
<path d="M172.197 344.92L178.771 355.813C179.846 358.379 192.973 355.978 191.637 352.017C190.301 348.056 189.888 341.786 189.888 341.786L172.197 344.92Z" fill="#C36F0B"/>
<path d="M202.163 362.959C201.676 365.645 195.773 374.989 195.163 379.141C194.553 383.292 192.345 389.515 188.684 391.346C185.023 393.176 167.78 393.299 164.607 391.346" stroke="#6562CF" stroke-width="7" stroke-miterlimit="10" stroke-linecap="round"/>
<path d="M179.549 381.492C179.549 381.492 173.132 378.616 166.714 380.879" stroke="white" stroke-width="6" stroke-miterlimit="10" stroke-linecap="round"/>
<path d="M170.436 189.531C170.436 189.531 106.64 220.802 106.64 240.037C106.64 274.35 163.7 346.728 173.499 345.778C183.299 344.828 192.951 342.752 192.574 338.601C192.198 334.45 171.677 269.362 155.729 250.093C155.729 250.093 161.549 240.923 197.92 241.325C215.448 241.518 230.731 242.711 231.108 243.278C231.485 243.845 212.051 281.803 221.967 340.496C222.834 345.609 244.203 347.756 246.274 344.926C248.345 342.096 281.514 242.432 278.313 234.5C275.112 226.569 241.86 198.164 225.643 189.521C213.962 183.301 170.436 189.531 170.436 189.531Z" fill="#3F4D79"/>
<path d="M152.219 90.3662C144.128 94.8116 132.037 134.677 132.037 134.677C132.037 134.677 102.905 98.8892 101.558 98.552C100.21 98.2147 92.3831 108.669 92.3831 108.669C92.3831 108.669 107.592 176.633 131.318 178.144C141.276 178.779 149.697 172.997 156.611 164.547C159.675 174.772 162.536 183.203 162.536 183.203C163.761 187.495 140.897 199.314 146.113 202.56C146.113 202.56 163.914 196.766 195.325 204.872C232.881 214.572 251.038 207.214 247.487 204.394C243.937 201.573 238.362 192.403 236.435 186.269L239.899 153.256C239.899 153.256 252.024 184.055 270.352 184.055C292.214 184.055 312.196 117.162 312.196 117.162C304.425 116.941 297.986 111.386 297.986 111.386C289.77 117.162 272.671 137.396 272.671 137.396C272.671 137.396 262.013 105.153 256.907 97.8192C251.8 90.4858 235.157 84.7067 224.044 82.0424L180.079 80.0404C177.129 79.4763 159.102 85.6601 152.219 90.3662Z" fill="#FFB000"/>
<path d="M272.671 136.047C267.111 142.446 262.087 153.829 262.087 153.829" stroke="#F49C00" stroke-width="6" stroke-miterlimit="10"/>
<path d="M237.746 86.9018C216.401 85.096 194.97 98.5336 194.97 98.5336C194.97 98.5336 176.131 94.3089 172.363 81.7573" stroke="#F49C00" stroke-width="6" stroke-miterlimit="10"/>
<path d="M163.148 183.203C163.148 183.203 151.367 149.331 149.722 135.048" stroke="#F49C00" stroke-width="6" stroke-miterlimit="10" stroke-linecap="round"/>
<path d="M311.581 92.7576C311.296 94.5817 309.314 97.4115 311.274 97.39C312.285 97.39 319.594 96.1974 320.489 98.8892C320.867 100.168 320.799 101.538 320.296 102.774C321.898 105.168 320.672 107.124 320.672 107.124C321.64 108.614 321.898 110.542 321.224 111.392C321.224 111.392 322.918 115.301 321.3 116.208C316.289 119.029 308.297 119.614 304.425 118.612C301.708 117.91 298.448 116.23 297.615 110.441C297.272 108.071 299.631 101.857 301.432 99.2939C302.167 98.2393 304.86 94.0329 305.77 92.8802C307.067 91.1923 307.95 89.2234 308.349 87.1317C308.349 87.1317 312.377 87.6621 311.581 92.7576Z" fill="#C36F0B"/>
<path d="M318.133 98.5305C318.311 99.7569 310.845 100.014 309.556 100.296C307.718 100.695 307.957 104.622 310.34 104.239C313.583 104.091 316.803 103.626 319.956 102.85" stroke="#B65A18" stroke-width="4" stroke-miterlimit="10" stroke-linecap="round"/>
<path d="M320.185 107.164C312.288 108.758 310.181 108.611 310.181 108.611C309.029 108.838 307.546 104.763 310.34 104.239" stroke="#B65A18" stroke-width="4" stroke-miterlimit="10" stroke-linecap="round"/>
<path d="M320.381 111.254C312.95 112.888 310.377 112.701 310.377 112.701C309.277 112.833 307.902 108.957 310.147 108.691" stroke="#B65A18" stroke-width="4" stroke-miterlimit="10" stroke-linecap="round"/>
<path d="M312.457 112.636C312.457 112.636 309.801 112.388 309.841 114.044C309.914 116.987 311.339 117.303 318.063 116.067" stroke="#B65A18" stroke-width="4" stroke-miterlimit="10" stroke-linecap="round"/>
<path d="M90.9249 83.7103C90.9862 85.5498 92.5944 88.5727 90.6676 88.309C89.669 88.1741 82.6081 86.1231 81.4011 88.6646C80.8718 89.8797 80.7724 91.2391 81.1193 92.5184C79.2507 94.6829 80.2187 96.7615 80.2187 96.7615C79.0853 98.1136 78.5982 99.9837 79.1588 100.903C79.1588 100.903 77.0145 104.549 78.4971 105.64C83.0921 109.031 90.9035 110.579 94.8429 110.061C97.5999 109.699 101.022 108.439 102.547 102.835C103.16 100.542 101.601 94.1433 100.139 91.384C99.542 90.2527 97.3977 85.7797 96.638 84.5319C95.5691 82.7093 94.9398 80.6622 94.8 78.5535C94.8 78.5535 90.7595 78.5903 90.9249 83.7103Z" fill="#C36F0B"/>
<path d="M81.7044 105.904C88.1833 107.94 89.6261 107.799 90.058 104.908C90.1928 103.988 89.4117 103.568 88.7041 103.375C89.0311 103.439 89.3614 103.485 89.6935 103.513C90.6799 103.755 92.3494 100.392 90.8698 99.4629C91.4825 99.1563 92.1319 96.9581 92.1288 95.0051C93.2714 94.2142 93.3542 91.8688 92.0247 91.3997C90.7718 90.9613 83.4474 89.7932 83.7538 88.6098L81.7044 105.904Z" fill="#C36F0B"/>
<path d="M81.8208 92.6441C84.72 93.7642 87.7164 94.614 90.7717 95.1826C93.0723 95.8479 93.786 92.0064 92.0246 91.3902C90.7717 90.9518 84.9116 89.0417 83.7537 88.6033" stroke="#B65A18" stroke-width="3" stroke-miterlimit="10" stroke-linecap="round"/>
<path d="M81.0734 96.8688C88.6642 99.3981 90.398 99.5116 90.398 99.5116C91.5039 99.8734 93.4613 96.0411 90.7718 95.1826" stroke="#B65A18" stroke-width="3" stroke-miterlimit="10" stroke-linecap="round"/>
<path d="M80.0226 100.861C87.1479 103.378 89.7088 103.503 89.7088 103.503C90.7779 103.77 92.2697 99.7507 89.6475 99.4043" stroke="#B65A18" stroke-width="3" stroke-miterlimit="10" stroke-linecap="round"/>
<path d="M87.6472 103.2C87.6472 103.2 90.297 103.28 90.058 104.907C89.6261 107.799 88.1864 107.937 81.7075 105.904" stroke="#B65A18" stroke-width="3" stroke-miterlimit="10" stroke-linecap="round"/>
<path d="M214.719 53.3738C214.719 53.3738 210.054 74.2644 224.044 82.0424C224.044 82.0424 211.178 84.2652 194.734 97.8192C194.734 97.8192 182.077 87.1532 180.079 80.0374C180.079 80.0374 192.945 75.595 191.625 53.3646L214.719 53.3738Z" fill="#C36F0B"/>
<path d="M214.719 53.3741H191.625C192.957 75.5984 180.079 80.0469 180.079 80.0469C180.079 80.0469 205.759 80.0469 213.022 57.1328L214.719 53.3741Z" fill="#B65A18"/>
<path d="M215.601 53.1684C215.601 53.1684 208.743 66.5508 192.354 66.5569C177.736 66.5569 175.506 23.6137 197.277 23.022C218.021 22.4579 215.35 47.0245 215.35 47.0245C215.35 47.0245 219.084 44.8508 220.441 47.1134C221.798 49.3759 215.601 53.1684 215.601 53.1684Z" fill="#C36F0B"/>
<path d="M205.998 24.6254C205.998 24.6254 205.762 32.0601 195.478 31.9467C186.549 31.8486 181.654 36.9072 181.176 40.5494" stroke="#3F4D79" stroke-width="3" stroke-miterlimit="10" stroke-linecap="round"/>
<path d="M234.196 39.3077C234.196 47.4076 224.427 54.41 213.61 59.162C212.97 59.4441 211.935 59.5085 210.623 59.4042C212.6 57.6 214.279 55.4956 215.601 53.1683C215.601 53.1683 221.762 49.3238 220.429 47.1133C219.096 44.9028 215.338 47.0213 215.338 47.0213C215.338 47.0213 217.21 29.8986 205.756 24.5794C205.667 24.745 202.693 29.9937 193.901 30.2727C185.538 30.5333 183.256 33.7248 182.3 37.0604C182.269 37.1769 182.239 37.2904 182.211 37.4069C181.134 41.8437 180.876 46.4405 181.452 50.9701L181.403 50.9517C180.591 49.9645 169.499 35.8954 172.393 28.3504C175.539 20.1493 195.647 8.58186 211.745 11.4454C220.735 13.0488 234.192 35.0492 234.196 39.3077Z" fill="#3F4D79"/>
<path d="M161.286 155.402H37.9114C36.2185 155.4 34.5689 154.866 33.1951 153.876C31.8212 152.886 30.7923 151.489 30.2532 149.883L4.10483 71.9589C3.81759 71.1026 3.73806 70.1901 3.87281 69.297C4.00755 68.4038 4.35271 67.5556 4.87975 66.8223C5.4068 66.0891 6.10061 65.4918 6.90387 65.08C7.70712 64.6681 8.59677 64.4535 9.4993 64.4537H132.874C134.567 64.4564 136.216 64.9903 137.59 65.9803C138.964 66.9702 139.993 68.3664 140.532 69.9722L166.665 147.878C166.955 148.734 167.038 149.647 166.906 150.542C166.774 151.436 166.43 152.286 165.905 153.022C165.379 153.757 164.686 154.356 163.883 154.77C163.079 155.184 162.189 155.401 161.286 155.402Z" fill="#C7BFFF"/>
<path d="M158.471 158.44H35.0932C33.4003 158.438 31.7507 157.904 30.3768 156.914C29.003 155.924 27.974 154.528 27.4349 152.922L1.29578 75.0125C1.00862 74.1564 0.929055 73.2443 1.06364 72.3514C1.19823 71.4584 1.54311 70.6104 2.06981 69.8772C2.59651 69.144 3.28991 68.5467 4.09277 68.1346C4.89563 67.7226 5.78491 67.5075 6.68719 67.5073H130.059C131.752 67.5096 133.401 68.0433 134.775 69.0333C136.149 70.0233 137.178 71.4197 137.717 73.0258L163.853 150.935C164.14 151.79 164.22 152.702 164.085 153.594C163.951 154.486 163.607 155.334 163.082 156.067C162.556 156.799 161.864 157.397 161.062 157.81C160.26 158.222 159.372 158.438 158.471 158.44Z" fill="white"/>
<path d="M161.286 155.15H37.9113C36.2183 155.149 34.5685 154.615 33.1945 153.625C31.8206 152.635 30.7917 151.238 30.253 149.632L4.10471 71.7228C3.81747 70.8665 3.73794 69.9541 3.87269 69.061C4.00743 68.1678 4.35258 67.3195 4.87963 66.5863C5.40668 65.853 6.10049 65.2558 6.90375 64.8439C7.707 64.4321 8.59665 64.2174 9.49918 64.2177H132.874C134.566 64.2204 136.216 64.7543 137.59 65.7442C138.963 66.7342 139.992 68.1303 140.532 69.7362L166.677 147.645C166.964 148.501 167.044 149.413 166.909 150.306C166.775 151.199 166.43 152.047 165.903 152.781C165.376 153.514 164.683 154.111 163.88 154.523C163.077 154.935 162.188 155.15 161.286 155.15V155.15Z" stroke="#6562CF" stroke-width="6" stroke-miterlimit="10"/>
<path d="M107.923 130.731L117.309 154.108H97.0239C97.0239 154.108 100.966 135.82 107.923 130.731Z" fill="#E2E2FF"/>
<path d="M121.414 183.427C81.4716 183.427 98.2676 140.649 106.211 131.764H75.4705C67.5305 140.655 46.0414 185.775 85.9807 185.775H121.414V183.427Z" fill="white" stroke="#6562CF" stroke-width="6" stroke-miterlimit="10"/>
<path d="M87.5075 111.375C89.2286 108.646 87.8393 104.675 84.4043 102.505C80.9693 100.335 76.7894 100.788 75.0682 103.517C73.347 106.246 74.7364 110.218 78.1714 112.388C81.6064 114.558 85.7863 114.104 87.5075 111.375Z" fill="#E2E2FF"/>
<path d="M89.4695 109.719C91.1907 106.99 89.8013 103.018 86.3663 100.848C82.9313 98.6783 78.7514 99.1316 77.0302 101.861C75.3091 104.59 76.6984 108.561 80.1334 110.731C83.5684 112.901 87.7483 112.448 89.4695 109.719Z" stroke="#6562CF" stroke-width="6" stroke-miterlimit="10"/>
<path d="M29.7079 185.775H212.639C215.329 185.775 217.51 187.811 217.51 190.325C217.51 192.836 215.329 194.871 212.639 194.871H29.7079V185.775Z" fill="white"/>
<path d="M29.7079 185.775H212.639C215.329 185.775 217.51 187.811 217.51 190.325C217.51 192.836 215.329 194.871 212.639 194.871H29.7079" stroke="#6562CF" stroke-width="6" stroke-miterlimit="10"/>
<g clip-path="url(#clip0)">
<path d="M699.435 238.279H603.069C595.811 238.279 589.927 243.257 589.927 249.397C589.927 255.537 595.811 260.514 603.069 260.514H699.435C706.693 260.514 712.577 255.537 712.577 249.397C712.577 243.257 706.693 238.279 699.435 238.279Z" fill="white" stroke="#D8BAA3" stroke-width="6" stroke-miterlimit="10"/>
<path d="M597.858 380.158C597.743 380.16 597.629 380.141 597.524 380.103C597.418 380.064 597.324 380.007 597.247 379.935C597.17 379.863 597.112 379.777 597.077 379.685C597.042 379.592 597.031 379.494 597.045 379.398L616.822 260.514H681.267L598.574 379.819C598.5 379.923 598.395 380.01 598.269 380.069C598.144 380.129 598.002 380.159 597.858 380.158V380.158Z" stroke="#D8BAA3" stroke-width="6" stroke-miterlimit="10"/>
<path d="M703.863 380.158C703.978 380.16 704.093 380.141 704.199 380.102C704.305 380.063 704.4 380.005 704.477 379.932C704.553 379.859 704.61 379.772 704.643 379.679C704.677 379.585 704.685 379.486 704.669 379.389L681.598 260.514H617.153L703.16 379.83C703.234 379.931 703.338 380.014 703.461 380.071C703.584 380.129 703.722 380.159 703.863 380.158V380.158Z" stroke="#D8BAA3" stroke-width="6" stroke-miterlimit="10"/>
<path d="M725.235 335.42C729.707 335.796 736.945 336.542 745.579 335.849C743.363 343.083 742.345 350 740.733 356.145C739.691 360.101 746.04 365.458 747.964 369.333C747.915 369.311 747.866 369.291 747.815 369.274C739.011 368.087 727.222 375.13 728.436 364.136C729.6 353.131 726.671 345.058 725.235 335.42Z" fill="#B65A18"/>
<path d="M728.701 356.044C725.673 356.044 720.097 360.671 720.584 368.078C720.856 372.448 721.711 376.778 723.132 380.986H758.459C760.118 370.399 747.815 369.257 747.815 369.257C739.008 368.07 727.663 375.113 728.877 364.122L728.701 356.044Z" fill="#642648"/>
<path d="M700.688 335.7C705.16 336.076 714.72 336.542 723.354 335.849C721.138 343.083 719.835 356.145 719.835 356.145C718.793 360.101 725.142 365.458 727.066 369.333C727.018 369.311 726.968 369.291 726.917 369.274C718.113 368.087 706.324 375.13 707.538 364.136C708.703 353.131 700.688 335.7 700.688 335.7Z" fill="#C36F0B"/>
<path d="M707.14 356.044C704.112 356.044 699.199 360.671 699.687 368.078C699.958 372.448 700.813 376.778 702.234 380.986H737.561C739.22 370.399 726.917 369.257 726.917 369.257C718.11 368.07 706.765 375.113 707.979 364.122L707.14 356.044Z" fill="#722D54"/>
<path d="M629.702 176.217C629.702 176.217 599.347 207.293 601.507 228.018C603.666 248.743 628.83 254.871 675.147 254.414C675.147 254.414 676.503 285.501 700.556 335.787C700.556 335.787 711.718 337.611 725.434 335.787C725.434 335.787 737.044 336.778 745.669 335.74C745.669 335.74 764.059 234.065 761.823 223.753C758.861 210.088 700.324 197.761 685.171 194.801L672.503 176.217C672.503 176.217 647.067 178.95 629.702 176.217Z" fill="#3F4D90"/>
<path d="M663.726 206.822C663.726 206.822 712.275 217.597 718.203 230.804C724.13 244.012 724.432 336.91 724.432 336.91" stroke="white" stroke-width="4" stroke-miterlimit="10"/>
<path d="M688.269 137.329C688.269 137.329 686.385 159.532 672.38 176.27C672.38 176.27 649.492 179.573 629.589 176.27C629.589 176.27 609.869 158.727 604.217 139.714C604.217 139.714 585.439 107.496 593.934 102.029C602.429 96.5634 623.565 87.1578 623.565 87.1578L666.559 88.9424C671.866 91.6698 683.181 96.1285 694.489 101.137L688.269 137.329Z" fill="#F0E1D4"/>
<path d="M653.429 129.957C655.142 129.957 656.531 128.783 656.531 127.334C656.531 125.885 655.142 124.71 653.429 124.71C651.717 124.71 650.328 125.885 650.328 127.334C650.328 128.783 651.717 129.957 653.429 129.957Z" fill="#F0E1D4" stroke="white" stroke-width="5" stroke-linejoin="round"/>
<path d="M653.429 140.575C655.142 140.575 656.531 139.401 656.531 137.952C656.531 136.503 655.142 135.328 653.429 135.328C651.717 135.328 650.328 136.503 650.328 137.952C650.328 139.401 651.717 140.575 653.429 140.575Z" fill="#F0E1D4" stroke="white" stroke-width="5" stroke-linejoin="round"/>
<path d="M653.429 151.19C655.142 151.19 656.531 150.016 656.531 148.567C656.531 147.118 655.142 145.943 653.429 145.943C651.717 145.943 650.328 147.118 650.328 148.567C650.328 150.016 651.717 151.19 653.429 151.19Z" fill="#F0E1D4" stroke="white" stroke-width="5" stroke-linejoin="round"/>
<path d="M694.462 101.134C705.767 106.146 739.031 170.638 725.189 177.457C696.443 191.636 688.269 137.331 688.269 137.331L694.462 101.134Z" fill="#F0E1D4"/>
<path d="M713.094 179.469C716.975 180.872 726.99 178.288 738.119 172.12C749.248 165.952 736.623 161.881 736.623 161.881C736.623 161.881 721.828 156.858 712.803 160.478C703.777 164.098 705.661 176.761 713.094 179.469Z" fill="#B65A18"/>
<path d="M773.171 148.005H712.408L645.734 184.924H706.493L773.171 148.005Z" fill="white" stroke="#3F4D79" stroke-width="5" stroke-linejoin="round"/>
<path d="M750.704 163.236C750.704 161.895 740.626 154.005 736.772 156.985C735.157 158.23 735.064 168.93 735.213 170.86C735.684 177.005 750.621 170.117 750.704 163.236Z" fill="#C36F0B"/>
<path d="M593.907 102.029C590.454 104.347 553.793 151.561 566.766 173.301C581.402 197.842 640.858 177.465 640.858 177.465C640.858 177.465 633.314 175.501 638.161 167.302C638.161 167.302 613.561 156.23 593.774 159.532C593.774 159.532 609.119 138.011 610.735 129.584C612.35 121.158 606.293 93.7182 593.907 102.029Z" fill="#F0E1D4"/>
<path d="M653.708 152.936L664.542 173.405" stroke="#722D54" stroke-width="6" stroke-miterlimit="10"/>
<path d="M638.177 166.646C638.177 166.646 649.081 161.387 653.436 163.357C658.209 165.512 663.935 172.336 664.459 173.484C664.983 174.631 664.834 175.824 664.751 177.053C664.668 178.282 654.799 178.212 652.902 178.119C651.005 178.027 640.821 179.048 639.043 177.575C632.518 172.171 638.177 166.646 638.177 166.646Z" fill="#C36F0B"/>
<path d="M652.899 178.119C654.809 178.212 663.533 178.304 664.645 177.429C666.85 175.698 665.587 173.111 664.482 172.098C663.47 171.166 658.087 165.512 653.433 163.365C653.433 163.365 658.83 171.309 652.899 178.128" fill="#B65A18"/>
<path d="M634.963 28.0161C634.963 28.0161 630.117 21.4108 634.963 17.996C639.809 14.5811 641.803 9.03648 650.577 9C659.639 8.96352 663.255 14.9403 667.404 14.351C673.044 13.5513 676.998 12.0136 684.159 15.2096C689.891 17.7687 690.13 27.3623 695.942 26.8769C700.566 26.4925 705.701 26.7394 708.324 31.0859C710.315 34.3773 708.192 43.2694 711.151 45.6601C714.109 48.0508 721.102 48.8309 721.653 54.9956C722.382 63.3266 712.099 64.5528 714.786 71.1665C718.322 79.865 713.333 85.3255 704.556 86.3188C698.383 87.0118 687.536 79.2477 683.559 84.6099C680.165 89.1809 673.057 91.2152 664.32 88.2577C655.582 85.3002 650.185 86.2065 644.802 88.1427C639.418 90.0788 632.82 92.809 628.379 89.5064C623.937 86.2037 618.577 86.1111 612.662 88.1791C604.456 91.0497 595.649 86.33 596.74 80.0586C597.646 74.876 589.237 74.2222 588.261 68.3296C586.988 60.6328 600.375 58.6518 596.471 55.3492C592.567 52.0465 592.706 42.3912 604.273 41.1116C615.246 39.9051 612.898 34.1219 615.992 30.1683C618.603 26.8629 626.753 22.6651 634.963 28.0161Z" fill="#722D54"/>
<path d="M591.771 53.5365C588.122 50.0403 589.286 39.2821 600.923 38.6115C611.962 37.9774 610.032 32.082 613.412 28.308C616.258 25.1344 625.798 21.3463 634.827 27.974" stroke="#722D54" stroke-width="3" stroke-miterlimit="10"/>
<path d="M636.529 56.4014C636.446 62.294 636.88 78.5434 623.539 87.155C623.539 87.155 647.495 97.3322 652.902 119.878C652.902 119.878 656.707 96.1145 666.532 88.9396C666.532 88.9396 654.889 83.3557 657.446 56.3902L636.529 56.4014Z" fill="#C36F0B"/>
<path d="M659.639 79.753C657.981 81.0213 656.11 81.7453 654.08 81.7453C645.674 81.7453 637.305 70.9142 636.499 59.3339C636.525 58.1947 636.525 57.2014 636.539 56.4017H657.456C656.405 67.3646 657.715 74.7977 659.639 79.753Z" fill="#B65A18"/>
<path d="M635.772 51.0701C635.865 48.1069 637.099 32.6235 651.923 33.1932C666.748 33.7628 669.153 46.4009 667.826 56.5361C666.499 66.6713 659.201 73.5011 654.096 73.0465C648.991 72.5919 635.368 63.596 635.772 51.0701Z" fill="#C36F0B"/>
</g>
<defs>
<clipPath id="clip0">
<rect width="210" height="372" fill="white" transform="translate(564 9)"/>
</clipPath>
</defs>
</svg>
